<svg width="28" height="28" viewBox="0 0 28 28" fill="none" xmlns="http://www.w3.org/2000/svg">
<path fill-rule="evenodd" clip-rule="evenodd" d="M14 28C16.5577 28 18.9247 27.3606 21.101 26.0817C23.2099 24.8702 24.8702 23.2099 26.0817 21.101C27.3606 18.9247 28 16.5577 28 14C28 11.4423 27.3606 9.07532 26.0817 6.89904C24.8702 4.79006 23.2099 3.12981 21.101 1.91827C18.9247 0.639423 16.5577 0 14 0C11.4647 0 9.10897 0.639423 6.93269 1.91827C4.82372 3.15224 3.15224 4.82372 1.91827 6.93269C0.639423 9.10897 0 11.4647 0 14C0 16.5353 0.639423 18.891 1.91827 21.0673C3.12981 23.1763 4.79006 24.8478 6.89904 26.0817C9.07532 27.3606 11.4423 28 14 28ZM14 25.2404C11.9808 25.2404 10.0962 24.7244 8.34615 23.6923C6.64103 22.7051 5.29487 21.359 4.30769 19.6538C3.27564 17.9038 2.75962 16.0192 2.75962 14C2.75962 11.9808 3.27564 10.0962 4.30769 8.34615C5.29487 6.64103 6.64103 5.29487 8.34615 4.30769C10.0962 3.27564 11.9808 2.75962 14 2.75962C16.0192 2.75962 17.9038 3.27564 19.6538 4.30769C21.359 5.29487 22.7051 6.64103 23.6923 8.34615C24.7244 10.0962 25.2404 11.9808 25.2404 14C25.2404 16.0192 24.7244 17.9038 23.6923 19.6538C22.7051 21.359 21.359 22.7051 19.6538 23.6923C17.9038 24.7244 16.0192 25.2404 14 25.2404ZM21.0337 18.0721L19.9904 19.8558L12.6202 15.3798V6.96635H14.7404V14.3365L21.0337 18.0721Z" fill="white"/>
</svg>
