<svg width="30" height="27" viewBox="0 0 30 27" fill="none" xmlns="http://www.w3.org/2000/svg">
<path fill-rule="evenodd" clip-rule="evenodd" d="M25.7566 24.7097H3.94824C2.6811 24.7097 2.16271 23.8119 2.79631 22.7145L13.7005 3.82804C14.0173 3.27914 14.4348 3.00494 14.8524 3.00494C15.27 3.00494 15.6876 3.27914 16.0043 3.82804L26.9085 22.7145C27.5421 23.8119 27.0236 24.7097 25.7566 24.7097ZM17.988 2.68255C17.2658 1.43185 16.123 0.714233 14.8524 0.714233C13.5819 0.714233 12.439 1.43185 11.717 2.68255L0.812711 21.569C0.0905031 22.8198 0.0407574 24.1682 0.675995 25.2686C1.31128 26.3692 2.50392 26.9999 3.94829 26.9999H25.7567C27.2011 26.9999 28.3938 26.3692 29.0289 25.2686C29.6641 24.1682 29.6144 22.8198 28.8921 21.569L17.988 2.68255Z" fill="white"/>
<path fill-rule="evenodd" clip-rule="evenodd" d="M16.679 10.4656V17.0632H13.6729V10.4656H16.679ZM16.679 18.8984V21.8096H13.6729V18.8984H16.679Z" fill="white"/>
</svg>
