<svg width="27" height="27" viewBox="0 0 27 27" fill="none" xmlns="http://www.w3.org/2000/svg">
<path fill-rule="evenodd" clip-rule="evenodd" d="M26.7382 13.3691C26.7382 20.7526 20.7526 26.7382 13.3691 26.7382C5.98554 26.7382 0 20.7526 0 13.3691C0 5.98554 5.98554 0 13.3691 0C20.7526 0 26.7382 5.98554 26.7382 13.3691ZM8.54876 9.37074C8.32176 9.14375 8.32176 8.77571 8.54876 8.54871C8.77575 8.32171 9.14379 8.32171 9.37079 8.54871L13.4809 12.6589L17.5911 8.54872C17.8181 8.32172 18.1861 8.32172 18.4131 8.54872C18.6401 8.77572 18.6401 9.14375 18.4131 9.37075L14.303 13.4809L18.4131 17.5911C18.6401 17.8181 18.6401 18.1861 18.4131 18.4131C18.1861 18.6401 17.8181 18.6401 17.5911 18.4131L13.4809 14.3029L9.37074 18.4131C9.14375 18.6401 8.77571 18.6401 8.54871 18.4131C8.32171 18.1861 8.32171 17.8181 8.54871 17.5911L12.6589 13.4809L8.54876 9.37074Z" fill="black" fill-opacity="0.35"/>
</svg>
