<svg width="23" height="21" viewBox="0 0 23 21" fill="none" xmlns="http://www.w3.org/2000/svg">
<path d="M10.5584 11.4417C10.9492 10.5156 11.2805 9.78914 11.5524 9.26235C11.7563 8.87158 11.9476 8.54232 12.126 8.27466C12.3043 8.007 12.5211 7.74573 12.7759 7.49088C13.031 7.23594 13.324 7.04457 13.6555 6.91726C13.9867 6.78981 14.3562 6.72607 14.7643 6.72607H18.0267V9.17312C18.0267 9.28356 18.067 9.37922 18.1477 9.45984C18.2283 9.54059 18.324 9.5809 18.4343 9.5809C18.5534 9.5809 18.6512 9.54278 18.7272 9.46627L22.8057 5.38804C22.8824 5.31149 22.9206 5.21391 22.9206 5.0949C22.9206 4.97589 22.8824 4.87826 22.8057 4.80144L18.7401 0.73576C18.6384 0.650855 18.536 0.608582 18.4342 0.608582C18.3151 0.608582 18.2176 0.646748 18.1409 0.723305C18.0649 0.799773 18.0267 0.897399 18.0267 1.01636V3.46323H14.7642C14.1863 3.46323 13.6426 3.5335 13.1327 3.67366C12.6228 3.81383 12.1703 3.99217 11.7753 4.20894C11.3801 4.42562 10.9978 4.71658 10.6282 5.082C10.2585 5.44724 9.9441 5.79998 9.68511 6.13982C9.42602 6.47957 9.15403 6.90436 8.86945 7.41423C8.58492 7.92402 8.35547 8.37014 8.18129 8.75244C8.00706 9.13482 7.79681 9.60639 7.55044 10.1672C7.15954 11.0933 6.82818 11.8198 6.55632 12.3466C6.35245 12.7374 6.16113 13.0667 5.98284 13.3343C5.80446 13.602 5.58765 13.8632 5.3328 14.1181C5.07786 14.3732 4.78471 14.5644 4.45336 14.6919C4.12209 14.8193 3.75238 14.8831 3.3446 14.8831H0.489813C0.370804 14.8831 0.273044 14.921 0.196666 14.9976C0.120377 15.074 0.0820312 15.1715 0.0820312 15.2906V17.7379C0.0820312 17.8568 0.120511 17.9545 0.196978 18.0312C0.27349 18.1076 0.371295 18.1457 0.490126 18.1457H3.345C3.9229 18.1457 4.46657 18.0755 4.97644 17.9352C5.48622 17.795 5.93878 17.6165 6.33375 17.4C6.72894 17.1832 7.11124 16.8921 7.48085 16.5267C7.85038 16.1616 8.16491 15.8087 8.424 15.469C8.68299 15.1291 8.95494 14.7044 9.2396 14.1947C9.52414 13.6847 9.75367 13.2387 9.92777 12.8564C10.1018 12.474 10.312 12.0026 10.5584 11.4417Z" fill="white"/>
<path d="M0.489325 6.72593H3.3442C3.71806 6.72593 4.06424 6.78758 4.38292 6.91088C4.7016 7.03417 4.96921 7.18278 5.18585 7.35705C5.40253 7.53132 5.61916 7.77126 5.83584 8.07708C6.05248 8.38309 6.22456 8.65293 6.35201 8.88644C6.47937 9.12017 6.63654 9.42823 6.82349 9.81053C7.47786 8.27265 8.05974 7.11287 8.56957 6.33119C7.21012 4.4195 5.46833 3.4635 3.34416 3.4635H0.489325C0.370316 3.4635 0.272555 3.50167 0.196177 3.57822C0.119888 3.6546 0.081543 3.75223 0.081543 3.87124V6.31829C0.081543 6.43734 0.11971 6.53483 0.196177 6.61126C0.272734 6.68781 0.370495 6.72593 0.489325 6.72593Z" fill="white"/>
<path d="M18.7398 12.1557C18.6378 12.0708 18.5357 12.0286 18.4337 12.0286C18.3149 12.0286 18.2171 12.0666 18.1407 12.1431C18.0643 12.2195 18.0262 12.3173 18.0262 12.4361V14.8834H14.7634C14.3894 14.8834 14.0433 14.8216 13.7246 14.6982C13.4059 14.5751 13.1383 14.4265 12.9217 14.2522C12.7052 14.078 12.4885 13.8379 12.2718 13.5319C12.0551 13.226 11.8829 12.9561 11.7555 12.7224C11.6282 12.4891 11.471 12.1807 11.284 11.7986C10.6299 13.3279 10.0522 14.4877 9.55078 15.278C9.78009 15.6093 10.018 15.9046 10.2644 16.1635C10.5108 16.4226 10.7445 16.6499 10.9654 16.8455C11.1863 17.0407 11.4369 17.2109 11.7173 17.3551C11.9977 17.4996 12.244 17.6206 12.4566 17.7184C12.6696 17.8161 12.937 17.8947 13.2597 17.9542C13.5825 18.0135 13.8544 18.0584 14.0753 18.0877C14.2962 18.1174 14.5979 18.1387 14.9802 18.1516C15.3624 18.1644 15.6726 18.1684 15.9103 18.1644C16.1484 18.1601 16.4926 18.1556 16.943 18.1516C17.3933 18.1475 17.7545 18.1452 18.0264 18.1452V20.5923C18.0264 20.7027 18.0667 20.7983 18.1474 20.879C18.228 20.9597 18.3237 21 18.434 21C18.5531 21 18.6509 20.9618 18.7269 20.8855L22.8054 16.8073C22.8818 16.7306 22.92 16.6331 22.92 16.514C22.92 16.395 22.8818 16.2974 22.8051 16.221L18.7398 12.1557Z" fill="white"/>
</svg>
