<svg width="96" height="69" viewBox="0 0 96 69" fill="none" xmlns="http://www.w3.org/2000/svg">
<path d="M0.0488281 16H91.2499V64C91.2499 66.7614 89.0113 69 86.2499 69H5.04883C2.2874 69 0.0488281 66.7614 0.0488281 64V16Z" fill="#2A3B4D"/>
<path d="M0.0488281 10C0.0488281 7.23858 2.2874 5 5.04883 5H86.2499C89.0113 5 91.2499 7.23858 91.2499 10V16H0.0488281V10Z" fill="#4D6C8C"/>
<line x1="0.0488281" y1="17" x2="91.2499" y2="17" stroke="#D3DCE6" stroke-width="2"/>
<ellipse cx="6.63043" cy="11" rx="1.88043" ry="2" fill="#D3DCE6"/>
<ellipse cx="12.272" cy="11" rx="1.88044" ry="2" fill="#D3DCE6"/>
<ellipse cx="17.9127" cy="11" rx="1.88043" ry="2" fill="#D3DCE6"/>
<path fill-rule="evenodd" clip-rule="evenodd" d="M56.2332 54.7097H35.7286C34.5372 54.7097 34.0498 53.8119 34.6455 52.7145L44.8978 33.828C45.1957 33.2791 45.5882 33.0049 45.9808 33.0049C46.3735 33.0049 46.7661 33.2791 47.0639 33.828L57.3162 52.7145C57.9119 53.8119 57.4244 54.7097 56.2332 54.7097ZM48.929 32.6825C48.25 31.4318 47.1755 30.7142 45.9809 30.7142C44.7863 30.7142 43.7117 31.4318 43.0329 32.6825L32.7805 51.569C32.1015 52.8198 32.0547 54.1682 32.6519 55.2686C33.2493 56.3692 34.3706 56.9999 35.7286 56.9999H56.2333C57.5913 56.9999 58.7127 56.3692 59.3098 55.2686C59.9071 54.1682 59.8603 52.8198 59.1812 51.569L48.929 32.6825Z" fill="white"/>
<path fill-rule="evenodd" clip-rule="evenodd" d="M47.6985 40.4656V47.0632H44.8721V40.4656H47.6985ZM47.6985 48.8984V51.8096H44.8721V48.8984H47.6985Z" fill="white"/>
<ellipse cx="89.3698" cy="6" rx="5.6413" ry="6" fill="#DD4314"/>
</svg>
