<svg width="83" height="95" viewBox="0 0 83 95" fill="none" xmlns="http://www.w3.org/2000/svg">
<mask id="mask0_552_1479" style="mask-type:alpha" maskUnits="userSpaceOnUse" x="0" y="0" width="83" height="95">
<path fill-rule="evenodd" clip-rule="evenodd" d="M0.630859 0H82.4452V94.9182H0.630859V0Z" fill="white"/>
</mask>
<g mask="url(#mask0_552_1479)">
<path fill-rule="evenodd" clip-rule="evenodd" d="M61.3396 28.9952C65.2526 29.0071 68.4272 25.6964 68.4534 21.5765C68.48 17.3897 65.3222 13.9718 61.4149 13.9581C57.4772 13.9445 54.3159 17.3025 54.3184 21.4962C54.3208 25.6592 57.4332 28.9834 61.3396 28.9952ZM19.7467 43.3553H19.7452C19.7452 47.055 19.7445 50.7547 19.7457 54.4544C19.746 55.3542 19.7833 56.2475 19.9334 57.1401C20.8065 62.3333 25.1682 66.3825 30.1338 66.5302C32.2319 66.5926 34.3326 66.5534 36.4321 66.5598C36.5575 66.56 36.6828 66.5552 36.808 66.5522C37.0293 66.5471 37.1593 66.4309 37.1695 66.1927C37.181 65.9265 37.1844 65.6598 37.1845 65.3934C37.1854 62.3937 37.1845 59.394 37.1862 56.3942C37.1864 56.0946 37.1793 55.7922 37.2133 55.4959C37.2992 54.745 37.7601 54.1862 38.4178 53.9993C39.0429 53.8216 39.7471 54.0942 40.1498 54.7068C40.328 54.9777 40.4591 55.2851 40.599 55.5827C42.196 58.979 43.8046 62.3693 45.3727 65.7807C45.6467 66.3767 45.9647 66.592 46.591 66.5769C48.6896 66.5264 50.7908 66.5891 52.8889 66.5304C55.4938 66.4575 57.7724 65.4445 59.7056 63.59C62.234 61.1645 63.3577 58.0884 63.3578 54.507C63.358 48.7076 63.3581 42.9081 63.3581 37.1086C63.3582 35.742 63.3669 34.3754 63.3537 33.009C63.3473 32.3458 63.3298 32.3592 62.703 32.4271C58.7381 32.857 55.5004 31.4238 53.0649 28.0655C51.5762 26.0129 50.9381 23.6438 51.0014 21.0551C51.0226 20.1855 51.0109 20.1783 50.1928 20.1737C49.0333 20.1672 47.8738 20.1665 46.7144 20.174C45.916 20.1791 45.9074 20.1872 45.9062 21.0774C45.9021 24.1772 45.9049 27.2769 45.9037 30.3766C45.9036 30.6764 45.9202 30.9801 45.8828 31.2753C45.7889 32.0175 45.2909 32.6054 44.6477 32.743C43.9388 32.8946 43.3382 32.6905 42.9137 32.0474C42.7531 31.8041 42.638 31.5255 42.512 31.2578C40.8855 27.8026 39.2516 24.3514 37.6455 20.8855C37.4074 20.3717 37.1379 20.1464 36.5758 20.1575C34.6335 20.1958 32.69 20.1543 30.7473 20.1789C28.8045 20.2036 26.9453 20.6429 25.2673 21.7159C21.68 24.01 19.7989 27.3907 19.7546 31.8564C19.7165 35.689 19.7467 39.5223 19.7467 43.3553ZM9.95346 91.1197C10.5339 90.3886 11.2445 89.9524 11.8469 89.3884C14.5899 86.8202 16.5508 83.7014 17.759 80.0422C18.0671 79.1092 18.0552 79.0972 17.2773 78.4846C11.8346 74.1989 7.64165 68.8053 4.68815 62.3323C2.9133 58.4426 1.7227 54.3531 1.13253 50.0663C0.777875 47.4897 0.564258 44.9031 0.64963 42.3029C0.886564 35.0859 2.62042 28.3077 5.99674 22.0206C9.50507 15.4876 14.2927 10.2673 20.3076 6.33671C24.953 3.30101 29.9951 1.38271 35.3916 0.507615C37.4093 0.180415 39.439 -0.0018853 41.4706 1.47041e-05C45.2746 0.0036147 49.021 0.541815 52.6882 1.65871C58.5958 3.45781 63.8626 6.50041 68.4747 10.8193C75.2841 17.196 79.6127 25.1299 81.5581 34.5359C82.3567 38.3969 82.6102 42.3257 82.3426 46.2597C81.6369 56.6303 77.9968 65.6703 71.2882 73.2795C66.4484 78.7688 60.6464 82.6399 53.9233 84.9451C51.1461 85.8973 48.2968 86.495 45.3825 86.7757C42.9713 87.0079 40.5653 86.9964 38.1574 86.8285C37.7458 86.7998 37.5077 86.949 37.2777 87.2428C35.6312 89.3449 33.6368 90.9896 31.3805 92.2822C29.0674 93.6074 26.6064 94.4231 23.9917 94.7574C20.0613 95.2599 16.3197 94.5748 12.7357 92.8376C11.7743 92.3715 10.8466 91.8306 9.95346 91.1197Z" fill="#0677BA"/>
</g>
<path fill-rule="evenodd" clip-rule="evenodd" d="M19.7467 43.3553C19.7467 39.5223 19.7165 35.689 19.7546 31.8564C19.799 27.3907 21.6801 24.01 25.2674 21.7158C26.9453 20.6428 28.8046 20.2036 30.7472 20.1789C32.69 20.1543 34.6335 20.1958 36.5758 20.1574C37.1379 20.1464 37.4075 20.3717 37.6455 20.8855C39.2516 24.3513 40.8855 27.8026 42.512 31.2578C42.6381 31.5255 42.7532 31.8041 42.9137 32.0474C43.3383 32.6905 43.9389 32.8946 44.6477 32.743C45.2909 32.6054 45.7889 32.0175 45.8829 31.2753C45.9202 30.9801 45.9036 30.6764 45.9037 30.3766C45.9049 27.2769 45.9021 24.1772 45.9063 21.0774C45.9074 20.1872 45.916 20.1791 46.7144 20.174C47.8739 20.1665 49.0333 20.1672 50.1928 20.1737C51.0109 20.1783 51.0226 20.1855 51.0014 21.0551C50.9381 23.6438 51.5762 26.0129 53.0649 28.0655C55.5003 31.4238 58.7382 32.857 62.7031 32.4271C63.3298 32.3592 63.3473 32.3458 63.3538 33.009C63.3669 34.3754 63.3582 35.742 63.3581 37.1086C63.3581 42.9081 63.358 48.7075 63.3578 54.507C63.3577 58.0884 62.2341 61.1645 59.7056 63.59C57.7725 65.4445 55.4938 66.4575 52.889 66.5303C50.7908 66.5891 48.6896 66.5264 46.591 66.5769C45.9647 66.592 45.6468 66.3767 45.3727 65.7807C43.8046 62.3693 42.1961 58.979 40.599 55.5827C40.4591 55.2851 40.3281 54.9777 40.1499 54.7068C39.7471 54.0942 39.043 53.8216 38.4178 53.9993C37.7601 54.1862 37.2992 54.745 37.2133 55.4959C37.1794 55.7922 37.1864 56.0946 37.1862 56.3942C37.1845 59.394 37.1855 62.3937 37.1845 65.3934C37.1844 65.6598 37.181 65.9265 37.1696 66.1927C37.1593 66.4309 37.0293 66.547 36.8081 66.5522C36.6828 66.5552 36.5575 66.56 36.4322 66.5597C34.3327 66.5534 32.2319 66.5926 30.1338 66.5302C25.1683 66.3825 20.8065 62.3333 19.9334 57.1401C19.7834 56.2475 19.746 55.3542 19.7458 54.4544C19.7445 50.7547 19.7452 47.055 19.7452 43.3553H19.7467Z" fill="#FDFEFE"/>
<path fill-rule="evenodd" clip-rule="evenodd" d="M61.3395 28.9951C57.4332 28.9833 54.3208 25.6591 54.3184 21.4961C54.3159 17.3024 57.4772 13.9444 61.4148 13.958C65.3222 13.9717 68.48 17.3896 68.4534 21.5764C68.4272 25.6963 65.2525 29.007 61.3395 28.9951Z" fill="#E34437"/>
</svg>
