<svg width="29" height="20" viewBox="0 0 29 20" fill="none" xmlns="http://www.w3.org/2000/svg">
<path d="M28.1826 1.38843L19.8022 9.71478L28.1826 18.0411C28.3341 17.7245 28.426 17.3744 28.426 17.0006V2.4289C28.426 2.05506 28.3341 1.70507 28.1826 1.38843Z" fill="#DD4314"/>
<path d="M25.9972 0H3.22212C2.84827 0 2.49828 0.09191 2.18164 0.243402L12.8926 10.9004C13.8396 11.8474 15.3797 11.8474 16.3268 10.9004L27.0377 0.243402C26.7211 0.09191 26.3711 0 25.9972 0Z" fill="#DD4314"/>
<path d="M1.03686 1.38843C0.885367 1.70507 0.793457 2.05506 0.793457 2.4289V17.0006C0.793457 17.3745 0.885367 17.7245 1.03686 18.0411L9.41718 9.71478L1.03686 1.38843Z" fill="#DD4314"/>
<path d="M18.6574 10.8593L17.4715 12.0451C15.8935 13.6231 13.3258 13.6231 11.7478 12.0451L10.562 10.8593L2.18164 19.1856C2.49828 19.3371 2.84827 19.429 3.22212 19.429H25.9972C26.3711 19.429 26.7211 19.3371 27.0377 19.1856L18.6574 10.8593Z" fill="#DD4314"/>
</svg>
