<svg width="130" height="42" viewBox="0 0 130 42" fill="none" xmlns="http://www.w3.org/2000/svg">
<mask id="mask0_218_8105" style="mask-type:alpha" maskUnits="userSpaceOnUse" x="0" y="0" width="130" height="42">
<path d="M0 0H129.674V41.3997H0V0Z" fill="white"/>
</mask>
<g mask="url(#mask0_218_8105)">
<path fill-rule="evenodd" clip-rule="evenodd" d="M119.347 -0.0412598H10.3326C9.93491 -0.0412598 9.54262 -0.0412598 9.14601 -0.0391877C8.81441 -0.0371157 8.48498 -0.0308996 8.15013 -0.0257195C7.42842 -0.00914324 6.69913 0.0333334 5.9785 0.156619C5.25354 0.278869 4.57951 0.486073 3.91848 0.806202C3.27046 1.12426 2.6777 1.53659 2.16513 2.02767C1.64606 2.51874 1.21694 3.08751 0.88751 3.70705C0.550494 4.33798 0.337015 4.98549 0.210228 5.67859C0.0801901 6.36547 0.0346768 7.0596 0.0162548 7.75269C0.0065019 8.07075 0.00541825 8.38985 0 8.70687C0 9.08294 0 9.45901 0 9.8382V31.521C0 31.9033 0 32.2773 0 32.6544C0.00541825 32.9756 0.0065019 33.2874 0.0162548 33.6086C0.0346768 34.3027 0.0801901 34.9968 0.210228 35.6827C0.337015 36.3768 0.550494 37.0274 0.88751 37.6563C1.21694 38.2727 1.64606 38.8415 2.16513 39.3284C2.6777 39.8236 3.27046 40.2349 3.91848 40.5499C4.57951 40.8731 5.25354 41.0782 5.9785 41.2036C6.69913 41.3269 7.42842 41.3673 8.15013 41.3859C8.48498 41.3932 8.81441 41.3973 9.14601 41.3973C9.54262 41.3994 9.93491 41.3994 10.3326 41.3994H119.347C119.738 41.3994 120.132 41.3994 120.521 41.3973C120.853 41.3973 121.191 41.3932 121.522 41.3859C122.248 41.3673 122.976 41.3269 123.689 41.2036C124.415 41.0782 125.089 40.8731 125.757 40.5499C126.403 40.2349 126.996 39.8236 127.51 39.3284C128.025 38.8415 128.455 38.2727 128.789 37.6563C129.121 37.0274 129.338 36.3768 129.459 35.6827C129.594 34.9968 129.635 34.3027 129.662 33.6086C129.665 33.2874 129.665 32.9756 129.665 32.6544C129.674 32.2773 129.674 31.9033 129.674 31.521V9.8382C129.674 9.45901 129.674 9.08294 129.665 8.70687C129.665 8.38985 129.665 8.07075 129.662 7.75269C129.635 7.0596 129.594 6.36547 129.459 5.67859C129.338 4.98549 129.121 4.33798 128.789 3.70705C128.455 3.08751 128.025 2.51874 127.51 2.02767C126.996 1.53659 126.403 1.12426 125.757 0.806202C125.089 0.486073 124.415 0.278869 123.689 0.156619C122.976 0.0333334 122.248 -0.00914324 121.522 -0.0257195C121.191 -0.0308996 120.853 -0.0371157 120.521 -0.0391877C120.132 -0.0412598 119.738 -0.0412598 119.347 -0.0412598Z" fill="#A9AAA9"/>
</g>
<path fill-rule="evenodd" clip-rule="evenodd" d="M9.15169 40.493C8.82118 40.493 8.49933 40.4889 8.17207 40.4816C7.56523 40.4661 6.84677 40.433 6.14564 40.3128C5.48462 40.1988 4.89728 40.0123 4.35112 39.745C3.78545 39.4715 3.27722 39.1172 2.83726 38.6924C2.38863 38.2708 2.0191 37.788 1.73085 37.2451C1.45019 36.7219 1.25838 36.1604 1.14243 35.5284C1.01022 34.8312 0.976631 34.1246 0.962544 33.5859C0.954958 33.3673 0.946289 32.64 0.946289 32.64V8.70688C0.946289 8.70688 0.956042 7.99099 0.962544 7.78068C0.976631 7.2378 1.01022 6.53123 1.14135 5.84124C1.2573 5.20513 1.4491 4.6436 1.73085 4.11938C2.01802 3.57547 2.38754 3.08957 2.83076 2.67102C3.2783 2.24211 3.7887 1.88675 4.35003 1.61117C4.90703 1.34077 5.49329 1.15636 6.14131 1.04757C6.87169 0.923252 7.61074 0.891135 8.17424 0.877667L9.15169 0.865234H120.516L121.506 0.878703C122.062 0.891135 122.802 0.923252 123.52 1.04654C124.173 1.15636 124.764 1.3418 125.331 1.61428C125.887 1.88675 126.395 2.24211 126.838 2.66688C127.284 3.0875 127.653 3.5765 127.948 4.12145C128.228 4.65086 128.417 5.21238 128.529 5.82985C128.653 6.48358 128.692 7.15492 128.716 7.78482C128.719 8.07801 128.719 8.394 128.719 8.70688C128.729 9.09539 128.729 9.46525 128.729 9.83821V31.5211C128.729 31.8972 128.729 32.265 128.719 32.6348C128.719 32.9715 128.719 33.2803 128.715 33.5983C128.692 34.2085 128.653 34.8788 128.53 35.5181C128.417 36.1532 128.228 36.7147 127.945 37.2482C127.653 37.787 127.282 38.2729 126.845 38.6842C126.396 39.1172 125.888 39.4705 125.329 39.743C124.765 40.0165 124.192 40.1978 123.52 40.3128C122.827 40.433 122.108 40.4661 121.495 40.4816C121.178 40.4889 120.845 40.493 120.522 40.493L119.347 40.4951L9.15169 40.493Z" fill="black"/>
<path fill-rule="evenodd" clip-rule="evenodd" d="M26.8408 20.9909C26.8137 18.1408 29.2811 16.7535 29.3949 16.6883C27.997 14.7405 25.8297 14.4743 25.069 14.4535C23.2495 14.2702 21.4854 15.4947 20.5578 15.4947C19.6128 15.4947 18.1857 14.4711 16.648 14.5022C14.6692 14.5312 12.8162 15.6274 11.8008 17.3285C9.70501 20.7972 11.2687 25.8955 13.2756 28.699C14.2802 30.0728 15.4538 31.6072 16.9904 31.5523C18.4934 31.4932 19.0547 30.6354 20.8688 30.6354C22.6665 30.6354 23.1932 31.5523 24.7602 31.5181C26.3726 31.4932 27.3891 30.1381 28.359 28.7519C29.5195 27.1781 29.9855 25.6272 30.0039 25.5484C29.966 25.536 26.8711 24.4078 26.8408 20.9909Z" fill="#FFFFFE"/>
<path fill-rule="evenodd" clip-rule="evenodd" d="M23.8801 12.6095C24.6885 11.6429 25.2412 10.3281 25.0884 8.99268C23.9181 9.04241 22.4551 9.7666 21.6121 10.7125C20.8665 11.5455 20.2012 12.911 20.3724 14.1947C21.6868 14.2889 23.0371 13.5606 23.8801 12.6095Z" fill="#FFFFFE"/>
<path fill-rule="evenodd" clip-rule="evenodd" d="M41.2425 26.4715H45.3083L43.3036 20.8282H43.2483L41.2425 26.4715ZM45.8404 28.0763H40.7115L39.4794 31.5532H37.3066L42.1657 18.6877H44.423L49.281 31.5532H47.0714L45.8404 28.0763Z" fill="#FFFFFE"/>
<path fill-rule="evenodd" clip-rule="evenodd" d="M57.7044 26.8641C57.7044 24.9651 56.6771 23.7167 55.1112 23.7167C53.5725 23.7167 52.5376 24.991 52.5376 26.8641C52.5376 28.7538 53.5725 30.0198 55.1112 30.0198C56.6771 30.0198 57.7044 28.7797 57.7044 26.8641ZM59.7742 26.8641C59.7742 29.7784 58.1422 31.6516 55.6791 31.6516C54.2812 31.6516 53.1715 31.0538 52.5928 30.0105H52.5462V34.656H50.5317V22.1731H52.4812V23.7333H52.5181C53.0783 22.7273 54.2725 22.0757 55.6422 22.0757C58.1325 22.0757 59.7742 23.9571 59.7742 26.8641Z" fill="#FFFFFE"/>
<path fill-rule="evenodd" clip-rule="evenodd" d="M68.5017 26.8641C68.5017 24.9651 67.4755 23.7167 65.9096 23.7167C64.3708 23.7167 63.3359 24.991 63.3359 26.8641C63.3359 28.7538 64.3708 30.0198 65.9096 30.0198C67.4755 30.0198 68.5017 28.7797 68.5017 26.8641ZM70.5715 26.8641C70.5715 29.7784 68.9406 31.6516 66.4774 31.6516C65.0795 31.6516 63.9699 31.0538 63.3912 30.0105H63.3446V34.656H61.3301V22.1731H63.2796V23.7333H63.3164C63.8767 22.7273 65.0698 22.0757 66.4406 22.0757C68.9308 22.0757 70.5715 23.9571 70.5715 26.8641Z" fill="#FFFFFE"/>
<path fill-rule="evenodd" clip-rule="evenodd" d="M77.7096 27.9685C77.8581 29.2449 79.1552 30.082 80.9259 30.082C82.624 30.082 83.8453 29.2449 83.8453 28.0939C83.8453 27.0951 83.1084 26.4974 81.3648 26.0881L79.6201 25.6862C77.1494 25.1153 76.0018 24.0109 76.0018 22.2176C76.0018 19.9984 78.0261 18.4734 80.8988 18.4734C83.7423 18.4734 85.6918 19.9984 85.7568 22.2176H83.7239C83.6025 20.9339 82.4918 20.159 80.8707 20.159C79.2473 20.159 78.1377 20.9433 78.1377 22.0839C78.1377 22.9935 78.8464 23.5292 80.5813 23.9394L82.0638 24.2865C84.8249 24.9112 85.9725 25.9711 85.9725 27.8535C85.9725 30.2602 83.9667 31.7676 80.7775 31.7676C77.7931 31.7676 75.7775 30.2954 75.6475 27.9685H77.7096Z" fill="#FFFFFE"/>
<path fill-rule="evenodd" clip-rule="evenodd" d="M90.3179 19.9539V22.173H92.1839V23.6981H90.3179V28.8689C90.3179 29.6729 90.6918 30.0469 91.5121 30.0469C91.7169 30.0469 92.0442 30.02 92.1742 30.0024V31.5181C91.951 31.572 91.5034 31.6072 91.0559 31.6072C89.0695 31.6072 88.2947 30.8933 88.2947 29.0751V23.6981H86.8687V22.173H88.2947V19.9539H90.3179Z" fill="#FFFFFE"/>
<path fill-rule="evenodd" clip-rule="evenodd" d="M100.519 26.8642C100.519 24.8398 99.5493 23.6442 97.9174 23.6442C96.2854 23.6442 95.3166 24.8481 95.3166 26.8642C95.3166 28.8968 96.2854 30.082 97.9174 30.082C99.5493 30.082 100.519 28.8968 100.519 26.8642ZM93.2642 26.8642C93.2642 23.9126 95.0825 22.0581 97.9174 22.0581C100.762 22.0581 102.572 23.9126 102.572 26.8642C102.572 29.823 100.772 31.6692 97.9174 31.6692C95.0641 31.6692 93.2642 29.823 93.2642 26.8642Z" fill="#FFFFFE"/>
<path fill-rule="evenodd" clip-rule="evenodd" d="M104.232 22.1731H106.153V23.7696H106.2C106.508 22.7087 107.403 22.0757 108.559 22.0757C108.848 22.0757 109.09 22.1119 109.249 22.1472V23.9478C109.09 23.8856 108.736 23.8317 108.344 23.8317C107.048 23.8317 106.246 24.6709 106.246 25.9898V31.5532H104.232V22.1731Z" fill="#FFFFFE"/>
<path fill-rule="evenodd" clip-rule="evenodd" d="M111.727 25.9991H116.631C116.585 24.5632 115.625 23.6183 114.226 23.6183C112.836 23.6183 111.83 24.5818 111.727 25.9991ZM118.534 28.7984C118.263 30.5016 116.529 31.6692 114.31 31.6692C111.456 31.6692 109.684 29.8417 109.684 26.9087C109.684 23.9664 111.466 22.0581 114.226 22.0581C116.94 22.0581 118.647 23.8411 118.647 26.6849V27.3449H111.717V27.4609C111.717 29.0657 112.771 30.1172 114.357 30.1172C115.475 30.1172 116.353 29.6096 116.623 28.7984H118.534Z" fill="#FFFFFE"/>
<path fill-rule="evenodd" clip-rule="evenodd" d="M42.6881 15.1863H38.6548V9.00415H39.6593V14.3036H42.6881V15.1863Z" fill="#FFFFFE"/>
<path fill-rule="evenodd" clip-rule="evenodd" d="M46.8398 13.4683V13.0777L45.6478 13.1502C44.9759 13.1937 44.6714 13.4124 44.6714 13.8237C44.6714 14.2432 45.0518 14.4877 45.5763 14.4877C46.3023 14.4877 46.8398 14.0464 46.8398 13.4683ZM43.7026 13.8661C43.7026 13.0269 44.3572 12.5421 45.5178 12.4737L46.8398 12.4012V11.9982C46.8398 11.5061 46.4984 11.2274 45.8407 11.2274C45.3032 11.2274 44.9304 11.4159 44.8231 11.7454H43.8912C43.9898 10.9445 44.7776 10.4307 45.8851 10.4307C47.1085 10.4307 47.7977 11.0129 47.7977 11.9982V15.186H46.8712V14.5302H46.7954C46.5039 14.9975 45.9707 15.2627 45.3292 15.2627C44.3886 15.2627 43.7026 14.7188 43.7026 13.8661Z" fill="#FFFFFE"/>
<path fill-rule="evenodd" clip-rule="evenodd" d="M50.0583 12.8508C50.0583 13.8402 50.547 14.4359 51.363 14.4359C52.1746 14.4359 52.6753 13.8319 52.6753 12.855C52.6753 11.8832 52.1692 11.2698 51.363 11.2698C50.5513 11.2698 50.0583 11.8697 50.0583 12.8508ZM49.0635 12.8508C49.0635 11.3766 49.8567 10.4431 51.0899 10.4431C51.7574 10.4431 52.3209 10.7477 52.5853 11.2616H52.6579V8.69946H53.6202V15.186H52.698V14.4484H52.6222C52.3307 14.9591 51.7618 15.2627 51.0899 15.2627C49.848 15.2627 49.0635 14.3292 49.0635 12.8508Z" fill="#FFFFFE"/>
<path fill-rule="evenodd" clip-rule="evenodd" d="M55.9392 12.423H58.4045C58.3817 11.6905 57.9158 11.2139 57.2027 11.2139C56.4908 11.2139 55.9934 11.6947 55.9392 12.423ZM59.3267 13.9264C59.1078 14.7625 58.3276 15.2764 57.2125 15.2764C55.8146 15.2764 54.9585 14.3594 54.9585 12.8675C54.9585 11.3766 55.833 10.4307 57.2082 10.4307C58.566 10.4307 59.3852 11.3175 59.3852 12.7825V13.1037H55.9392V13.1555C55.9706 13.973 56.468 14.4921 57.2385 14.4921C57.8215 14.4921 58.2214 14.29 58.4002 13.9264H59.3267Z" fill="#FFFFFE"/>
<path fill-rule="evenodd" clip-rule="evenodd" d="M60.6777 10.5208H61.6053V11.2615H61.6769C61.9142 10.7435 62.3986 10.4307 63.1333 10.4307C64.2223 10.4307 64.8216 11.0554 64.8216 12.1659V15.1858H63.8593V12.3969C63.8593 11.6469 63.518 11.2739 62.806 11.2739C62.0941 11.2739 61.6411 11.7287 61.6411 12.456V15.1858H60.6777V10.5208Z" fill="#FFFFFE"/>
<path fill-rule="evenodd" clip-rule="evenodd" d="M68.9765 15.1858H69.9356V10.5208H68.9765V15.1858ZM68.8335 9.14084C68.8335 8.81969 69.0979 8.5752 69.4566 8.5752C69.8142 8.5752 70.0786 8.81969 70.0786 9.14084C70.0786 9.45785 69.8142 9.70234 69.4566 9.70234C69.0979 9.70234 68.8335 9.45785 68.8335 9.14084Z" fill="#FFFFFE"/>
<path fill-rule="evenodd" clip-rule="evenodd" d="M71.4893 10.5208H72.4169V11.2698H72.4884C72.7029 10.7435 73.196 10.4307 73.8462 10.4307C74.5137 10.4307 74.9754 10.7601 75.1899 11.2698H75.2669C75.5128 10.7601 76.0731 10.4307 76.7504 10.4307C77.7354 10.4307 78.3087 11.0005 78.3087 11.9722V15.1858H77.3464V12.2125C77.3464 11.5827 77.0321 11.2739 76.4003 11.2739C75.7773 11.2739 75.3698 11.7028 75.3698 12.2509V15.1858H74.4238V12.1224C74.4238 11.5951 74.0564 11.2739 73.4832 11.2739C72.8958 11.2739 72.4526 11.7329 72.4526 12.3327V15.1858H71.4893V10.5208Z" fill="#FFFFFE"/>
</svg>
