<svg width="147" height="42" viewBox="0 0 147 42" fill="none" xmlns="http://www.w3.org/2000/svg">
<path fill-rule="evenodd" clip-rule="evenodd" d="M141.582 41.4409H6.12528C3.14524 41.4409 0.707031 39.1099 0.707031 36.2608V5.18011C0.707031 2.33105 3.14524 0 6.12528 0H141.582C144.562 0 147 2.33105 147 5.18011V36.2608C147 39.1099 144.562 41.4409 141.582 41.4409Z" fill="#0A0B09"/>
<path fill-rule="evenodd" clip-rule="evenodd" d="M141.582 0H6.12528C3.14524 0 0.707031 2.33105 0.707031 5.18011V36.2608C0.707031 39.1099 3.14524 41.4409 6.12528 41.4409H141.582C144.562 41.4409 147 39.1099 147 36.2608V5.18011C147 2.33105 144.562 0 141.582 0ZM141.582 0.828818C144.091 0.828818 146.133 2.78069 146.133 5.18011V36.2608C146.133 38.6602 144.091 40.6121 141.582 40.6121H6.12528C3.61555 40.6121 1.57395 38.6602 1.57395 36.2608V5.18011C1.57395 2.78069 3.61555 0.828818 6.12528 0.828818H141.582Z" fill="#9E9F9B"/>
<path fill-rule="evenodd" clip-rule="evenodd" d="M116.588 31.0808H118.61V18.1292H116.588V31.0808ZM134.801 22.7945L132.483 28.4099H132.414L130.008 22.7945H127.83L131.437 30.6425L129.381 35.0084H131.491L137.05 22.7945H134.801ZM123.334 29.6096C122.671 29.6096 121.747 29.2936 121.747 28.5104C121.747 27.5106 122.898 27.1272 123.891 27.1272C124.781 27.1272 125.198 27.3106 125.739 27.5603C125.581 28.76 124.501 29.6096 123.334 29.6096ZM123.578 22.5117C122.114 22.5117 120.598 23.1281 119.97 24.4946L121.765 25.2106C122.148 24.4946 122.863 24.2605 123.612 24.2605C124.658 24.2605 125.721 24.8604 125.739 25.9275V26.0601C125.372 25.8602 124.589 25.5607 123.63 25.5607C121.695 25.5607 119.725 26.5771 119.725 28.4762C119.725 30.2095 121.312 31.3263 123.089 31.3263C124.449 31.3263 125.198 30.743 125.669 30.0592H125.739V31.059H127.69V26.0943C127.69 23.7943 125.896 22.5117 123.578 22.5117ZM111.081 24.3714H108.205V19.9319H111.081C112.593 19.9319 113.451 21.1285 113.451 22.1511C113.451 23.155 112.593 24.3714 111.081 24.3714ZM111.029 18.1292H106.184V31.0808H108.205V26.1741H111.029C113.27 26.1741 115.473 24.6221 115.473 22.1511C115.473 19.6801 113.27 18.1292 111.029 18.1292ZM84.6086 29.6117C83.2118 29.6117 82.0425 28.4938 82.0425 26.9584C82.0425 25.4064 83.2118 24.2709 84.6086 24.2709C85.9881 24.2709 87.0696 25.4064 87.0696 26.9584C87.0696 28.4938 85.9881 29.6117 84.6086 29.6117ZM86.9298 23.5197H86.8604C86.4064 23.0027 85.534 22.5355 84.4341 22.5355C82.1292 22.5355 80.0172 24.4708 80.0172 26.9584C80.0172 29.4283 82.1292 31.3481 84.4341 31.3481C85.534 31.3481 86.4064 30.8808 86.8604 30.3462H86.9298V30.9803C86.9298 32.667 85.9881 33.5683 84.4688 33.5683C83.2291 33.5683 82.4608 32.7167 82.1465 31.9987L80.3834 32.7001C80.8895 33.8688 82.2343 35.3037 84.4688 35.3037C86.8431 35.3037 88.8511 33.9682 88.8511 30.714V22.8017H86.9298V23.5197ZM90.2479 31.0808H92.2732V18.1281H90.2479V31.0808ZM95.2576 26.8081C95.2056 25.1059 96.6371 24.2377 97.6666 24.2377C98.4706 24.2377 99.1512 24.621 99.3777 25.1722L95.2576 26.8081ZM101.543 25.339C101.159 24.3548 99.9888 22.5355 97.5972 22.5355C95.2229 22.5355 93.2507 24.3206 93.2507 26.9418C93.2507 29.4117 95.2056 31.3481 97.8237 31.3481C99.9368 31.3481 101.159 30.1131 101.665 29.3951L100.094 28.3933C99.5705 29.1278 98.8543 29.6117 97.8237 29.6117C96.7942 29.6117 96.0606 29.161 95.5892 28.2772L101.752 25.8405L101.543 25.339ZM52.4448 23.8875V25.7565H57.1229C56.9831 26.8081 56.6168 27.5758 56.0587 28.1104C55.3771 28.7611 54.3119 29.478 52.4448 29.478C49.5644 29.478 47.3115 27.2588 47.3115 24.505C47.3115 21.7502 49.5644 19.5309 52.4448 19.5309C53.9987 19.5309 55.1333 20.1153 55.971 20.8664L57.3504 19.5475C56.1801 18.4794 54.6272 17.6609 52.4448 17.6609C48.4992 17.6609 45.1821 20.7328 45.1821 24.505C45.1821 28.2772 48.4992 31.3481 52.4448 31.3481C54.5741 31.3481 56.1801 30.6809 57.4371 29.4283C58.7288 28.1933 59.1309 26.458 59.1309 25.0551C59.1309 24.621 59.0962 24.2211 59.0258 23.8875H52.4448ZM64.4505 29.6117C63.0537 29.6117 61.8487 28.5104 61.8487 26.9418C61.8487 25.3556 63.0537 24.2709 64.4505 24.2709C65.8463 24.2709 67.0513 25.3556 67.0513 26.9418C67.0513 28.5104 65.8463 29.6117 64.4505 29.6117ZM64.4505 22.5355C61.9007 22.5355 59.8233 24.3879 59.8233 26.9418C59.8233 29.478 61.9007 31.3481 64.4505 31.3481C66.9993 31.3481 69.0766 29.478 69.0766 26.9418C69.0766 24.3879 66.9993 22.5355 64.4505 22.5355ZM74.5426 29.6117C73.1457 29.6117 71.9407 28.5104 71.9407 26.9418C71.9407 25.3556 73.1457 24.2709 74.5426 24.2709C75.9394 24.2709 77.1433 25.3556 77.1433 26.9418C77.1433 28.5104 75.9394 29.6117 74.5426 29.6117ZM74.5426 22.5355C71.9938 22.5355 69.9165 24.3879 69.9165 26.9418C69.9165 29.478 71.9938 31.3481 74.5426 31.3481C77.0913 31.3481 79.1687 29.478 79.1687 26.9418C79.1687 24.3879 77.0913 22.5355 74.5426 22.5355Z" fill="#FFFFFE"/>
<path fill-rule="evenodd" clip-rule="evenodd" d="M12.0148 7.81898C11.6995 8.13807 11.5142 8.63226 11.5142 9.27356V32.1676C11.5142 32.8089 11.6995 33.3031 12.0148 33.6222L12.095 33.6968L25.5095 20.8718V20.5693L12.095 7.74438L12.0148 7.81898Z" fill="#60C2E3"/>
<mask id="mask0_218_8129" style="mask-type:alpha" maskUnits="userSpaceOnUse" x="25" y="16" width="12" height="10">
<path d="M29.9793 25.1484L25.5093 20.8717V20.5692L29.9815 16.2935L35.3802 19.2254C36.893 20.048 36.893 21.3928 35.3802 22.2144L30.0823 25.0925L29.9793 25.1484Z" fill="white"/>
</mask>
<g mask="url(#mask0_218_8129)">
<path fill-rule="evenodd" clip-rule="evenodd" d="M29.9793 25.1484L25.5093 20.8717V20.5692L29.9815 16.2935L35.3802 19.2254C36.893 20.048 36.893 21.3928 35.3802 22.2144L30.0823 25.0925L29.9793 25.1484Z" fill="url(#paint0_linear_218_8129)"/>
</g>
<mask id="mask1_218_8129" style="mask-type:alpha" maskUnits="userSpaceOnUse" x="12" y="20" width="19" height="15">
<path d="M30.0829 25.0927L25.5098 20.7207L12.0151 33.6221C12.5147 34.1267 13.3383 34.1888 14.2659 33.6853L30.0829 25.0927Z" fill="white"/>
</mask>
<g mask="url(#mask1_218_8129)">
<path fill-rule="evenodd" clip-rule="evenodd" d="M30.0829 25.0927L25.5098 20.7207L12.0151 33.6221C12.5147 34.1267 13.3383 34.1888 14.2659 33.6853L30.0829 25.0927Z" fill="url(#paint1_linear_218_8129)"/>
</g>
<mask id="mask2_218_8129" style="mask-type:alpha" maskUnits="userSpaceOnUse" x="12" y="7" width="19" height="14">
<path d="M30.0829 16.3487L14.2659 7.75584C13.3383 7.25233 12.5147 7.31449 12.0151 7.81904L25.5098 20.7207L30.0829 16.3487Z" fill="white"/>
</mask>
<g mask="url(#mask2_218_8129)">
<path fill-rule="evenodd" clip-rule="evenodd" d="M30.0829 16.3487L14.2659 7.75584C13.3383 7.25233 12.5147 7.31449 12.0151 7.81904L25.5098 20.7207L30.0829 16.3487Z" fill="url(#paint2_linear_218_8129)"/>
</g>
<path fill-rule="evenodd" clip-rule="evenodd" d="M47.3158 13.6072C46.8433 13.6072 46.4413 13.4818 46.1075 13.2301C45.7748 12.9773 45.5386 12.624 45.3999 12.1661L46.1628 11.8625C46.3568 12.5162 46.7534 12.8426 47.3515 12.8426C47.7395 12.8426 48.0375 12.7234 48.2466 12.4831C48.4547 12.2427 48.5598 11.9174 48.5598 11.5061V7.2522H49.3953V11.4885C49.3953 12.1661 49.2002 12.6882 48.809 13.056C48.4189 13.4238 47.9215 13.6072 47.3158 13.6072Z" fill="#FFFFFE"/>
<path fill-rule="evenodd" clip-rule="evenodd" d="M47.3156 13.6073V13.5037C46.8626 13.5027 46.4887 13.3846 46.1745 13.1484C45.8624 12.9111 45.637 12.5785 45.5037 12.1372L45.3997 12.1662L45.4409 12.2626L46.2037 11.958L46.1626 11.8626L46.0585 11.8906C46.2514 12.5713 46.7065 12.9526 47.3513 12.9474C47.7609 12.9484 48.1001 12.8158 48.3299 12.5495C48.5585 12.2864 48.6679 11.9331 48.6679 11.5062V7.35589H49.2867V11.4886C49.2856 12.1486 49.0982 12.6376 48.733 12.9826C48.3624 13.3307 47.8986 13.5027 47.3156 13.5037V13.7109C47.943 13.712 48.4751 13.5172 48.8847 13.1297C49.3008 12.7391 49.5045 12.1848 49.5034 11.4886V7.14868H48.4512V11.5062C48.4501 11.901 48.3515 12.2004 48.163 12.4169C47.9755 12.6314 47.7165 12.7381 47.3513 12.7402C46.7997 12.7339 46.4606 12.4615 46.2666 11.8347L46.233 11.7217L45.3574 12.0709L45.2686 12.1061L45.2956 12.1952C45.4387 12.6687 45.6879 13.0448 46.0401 13.311C46.3934 13.5783 46.8236 13.7109 47.3156 13.7109V13.6073Z" fill="#FFFFFE"/>
<path fill-rule="evenodd" clip-rule="evenodd" d="M54.5719 8.01574H51.6103V9.98727H54.2804V10.7332H51.6103V12.7047H54.5719V13.4683H50.7759V7.2522H54.5719V8.01574Z" fill="#FFFFFE"/>
<path fill-rule="evenodd" clip-rule="evenodd" d="M54.5719 8.0158V7.9122H51.5019V10.0909H54.172V10.6296H51.5019V12.8083H54.4624V13.3646H50.8842V7.35588H54.4624V8.0158H54.5719V7.9122V8.0158H54.6802V7.14868H50.6675V13.5718H54.6802V12.6011H51.7186V10.8368H54.3887V9.88368H51.7186V8.1194H54.6802V8.0158H54.5719Z" fill="#FFFFFE"/>
<path fill-rule="evenodd" clip-rule="evenodd" d="M58.0952 13.4683H57.2586V8.01574H55.4424V7.2522H59.9103V8.01574H58.0952V13.4683Z" fill="#FFFFFE"/>
<path fill-rule="evenodd" clip-rule="evenodd" d="M58.0951 13.4682V13.3646H57.3669V7.9122H55.5507V7.35588H59.8019V7.9122H57.9857V13.4682H58.0951V13.3646V13.4682H58.2024V8.1194H60.0186V7.14868H55.334V8.1194H57.1502V13.5718H58.2024V13.4682H58.0951Z" fill="#FFFFFE"/>
<path fill-rule="evenodd" clip-rule="evenodd" d="M60.6016 13.4683V12.6343L64.0606 8.01574H60.7468V7.2522H65.0326V8.08619L61.5736 12.7047H65.0695V13.4683H60.6016Z" fill="#FFFFFE"/>
<path fill-rule="evenodd" clip-rule="evenodd" d="M60.6015 13.4682H60.7099V12.6674L64.2718 7.9122H60.8551V7.35588H64.9242V8.05309L61.3622 12.8083H64.961V13.3646H60.6015V13.4682H60.7099H60.6015V13.5718H65.1778V12.6011H61.7838L65.1409 8.1194V7.14868H60.6384V8.1194H63.8503L60.4932 12.6011V13.5718H60.6015V13.4682Z" fill="#FFFFFE"/>
<path fill-rule="evenodd" clip-rule="evenodd" d="M68.4827 13.4683H67.6473V8.01574H65.8311V7.2522H70.299V8.01574H68.4827V13.4683Z" fill="#FFFFFE"/>
<path fill-rule="evenodd" clip-rule="evenodd" d="M68.4827 13.4682V13.3646H67.7556V7.9122H65.9394V7.35588H70.1906V7.9122H68.3744V13.4682H68.4827V13.3646V13.4682H68.5911V8.1194H70.4073V7.14868H65.7227V8.1194H67.5389V13.5718H68.5911V13.4682H68.4827Z" fill="#FFFFFE"/>
<path fill-rule="evenodd" clip-rule="evenodd" d="M74.3681 12.7047H76.0478C76.3685 12.7047 76.6297 12.597 76.8291 12.3825C77.0295 12.1691 77.1282 11.935 77.1282 11.6791C77.1282 11.4252 77.0263 11.1921 76.8193 10.9808C76.6145 10.7705 76.3447 10.6638 76.0109 10.6638H74.3681V12.7047ZM74.3681 9.91682H75.8841C76.1995 9.91682 76.452 9.8184 76.6427 9.61741C76.8334 9.4185 76.9288 9.1999 76.9288 8.96265C76.9288 8.7254 76.8367 8.50784 76.6514 8.311C76.4671 8.11519 76.2244 8.01574 75.921 8.01574H74.3681V9.91682ZM73.5337 13.4683V7.2522H75.8841C76.3934 7.2522 76.8334 7.41278 77.2062 7.73394C77.5779 8.05511 77.7643 8.45915 77.7643 8.94504C77.7643 9.2403 77.6841 9.50034 77.5237 9.72619C77.3633 9.95204 77.1498 10.123 76.8832 10.239V10.2732C77.204 10.3778 77.4673 10.5571 77.6732 10.8119C77.8791 11.0668 77.9832 11.3621 77.9832 11.6977C77.9832 12.2064 77.787 12.6291 77.3969 12.9648C77.0057 13.3004 76.5441 13.4683 76.0109 13.4683H73.5337Z" fill="#FFFFFE"/>
<path fill-rule="evenodd" clip-rule="evenodd" d="M74.3681 12.7047V12.8083H76.0477C76.3934 12.8093 76.6914 12.6881 76.9103 12.4519C77.1249 12.224 77.2376 11.9608 77.2365 11.679C77.2376 11.3972 77.1205 11.1362 76.8984 10.9103H76.8995C76.6741 10.6772 76.3685 10.5591 76.0109 10.5602H74.2597V12.8083H74.3681V12.7047H74.4764V10.7674H76.0109C76.3208 10.7684 76.5549 10.8627 76.7402 11.0512C76.932 11.2491 77.0198 11.4522 77.0208 11.679C77.0198 11.908 76.9342 12.1152 76.7489 12.3131L76.7478 12.3141C76.5668 12.5068 76.3436 12.599 76.0477 12.6011H74.3681V12.7047H74.4764H74.3681ZM74.3681 9.91683V10.0204H75.8841C76.2222 10.0225 76.5126 9.91061 76.7228 9.68788C76.9277 9.47447 77.0371 9.22687 77.0371 8.96269C77.0371 8.69955 76.932 8.45299 76.7315 8.24269H76.7326C76.5289 8.02306 76.2482 7.91117 75.9209 7.9122H74.2597V10.0204H74.3681V9.91683H74.4764V8.1194H75.9209C76.1994 8.12148 76.4053 8.20643 76.5701 8.38047C76.7413 8.5628 76.8193 8.75135 76.8204 8.96269C76.8193 9.173 76.7391 9.36258 76.5625 9.54802C76.3923 9.72621 76.1767 9.8122 75.8841 9.81323H74.3681V9.91683H74.4764H74.3681ZM73.5337 13.4682H73.642V7.35589H75.8841C76.3696 7.35692 76.7781 7.5061 77.1336 7.81068C77.4847 8.1163 77.6548 8.48511 77.6559 8.94508C77.6559 9.22272 77.5822 9.45996 77.4337 9.66819C77.2842 9.8785 77.088 10.036 76.8388 10.1447L76.7749 10.1717V10.3478L76.8486 10.3716C77.1498 10.47 77.3936 10.6358 77.5876 10.8751V10.8741C77.7783 11.1124 77.8737 11.3817 77.8748 11.6977C77.8726 12.1815 77.6927 12.5689 77.3243 12.887C76.9515 13.2071 76.5202 13.3635 76.0109 13.3646H73.5337V13.4682H73.642H73.5337V13.5718H76.0109C76.5679 13.5728 77.0609 13.3936 77.4684 13.0413C77.8802 12.6891 78.0926 12.2322 78.0904 11.6977C78.0915 11.3413 77.9788 11.0201 77.7599 10.7487L77.7588 10.7477C77.541 10.4783 77.2571 10.2846 76.9179 10.1748L76.8832 10.2732H76.9916V10.239H76.8832L76.9277 10.3333C77.2116 10.21 77.4424 10.0266 77.6136 9.78423H77.6125C77.787 9.54181 77.8737 9.25795 77.8726 8.94508C77.8748 8.43434 77.6721 7.99509 77.2788 7.65736L77.2755 7.65529L77.2788 7.65632C76.8886 7.31963 76.4173 7.14765 75.8841 7.14869H73.4253V13.5718H73.5337V13.4682Z" fill="#FFFFFE"/>
<path fill-rule="evenodd" clip-rule="evenodd" d="M82.904 8.01574H79.9423V9.98727H82.6125V10.7332H79.9423V12.7047H82.904V13.4683H79.1079V7.2522H82.904V8.01574Z" fill="#FFFFFE"/>
<path fill-rule="evenodd" clip-rule="evenodd" d="M82.9039 8.0158V7.9122H79.8339V10.0909H82.5041V10.6296H79.8339V12.8083H82.7956V13.3646H79.2162V7.35588H82.7956V8.0158H82.9039V7.9122V8.0158H83.0123V7.14868H78.9995V13.5718H83.0123V12.6011H80.0507V10.8368H82.7208V9.88368H80.0507V8.1194H83.0123V8.0158H82.9039Z" fill="#FFFFFE"/>
<path fill-rule="evenodd" clip-rule="evenodd" d="M84.2119 13.4683H85.0474V7.2522H84.2119V13.4683Z" fill="#FFFFFE"/>
<path fill-rule="evenodd" clip-rule="evenodd" d="M84.2119 13.4682H84.3202V7.35588H84.9379V13.3646H84.2119V13.4682H84.3202H84.2119V13.5718H85.1547V7.14868H84.1035V13.5718H84.2119V13.4682Z" fill="#FFFFFE"/>
<defs>
<linearGradient id="paint0_linear_218_8129" x1="34.3961" y1="20.7207" x2="8.19677" y2="20.7207" gradientUnits="userSpaceOnUse">
<stop stop-color="#EC942D"/>
<stop offset="1" stop-color="#FBDE1E"/>
</linearGradient>
<linearGradient id="paint1_linear_218_8129" x1="27.5976" y1="24.8345" x2="8.84101" y2="44.4536" gradientUnits="userSpaceOnUse">
<stop stop-color="#DD4245"/>
<stop offset="1" stop-color="#B72162"/>
</linearGradient>
<linearGradient id="paint2_linear_218_8129" x1="2.84604" y1="2.5512" x2="18.1607" y2="18.5699" gradientUnits="userSpaceOnUse">
<stop stop-color="#6CB966"/>
<stop offset="1" stop-color="#299567"/>
</linearGradient>
</defs>
</svg>
