<svg width="110" height="52" viewBox="0 0 110 52" fill="none" xmlns="http://www.w3.org/2000/svg">
<path fill-rule="evenodd" clip-rule="evenodd" d="M8.49672 37.6172C8.69689 37.6172 8.79666 37.7282 8.79666 37.95V39.3678C8.79666 39.425 8.78984 39.4696 8.77714 39.5014C8.76412 39.5335 8.75111 39.5654 8.73841 39.5972L3.65672 48.2582L3.42556 48.5629H8.62345C8.71238 48.5629 8.78365 48.5926 8.83539 48.6482C8.88683 48.7057 8.91286 48.7886 8.91286 48.8972V50.8665C8.91286 50.9751 8.88683 51.0555 8.83539 51.11C8.78365 51.1638 8.71238 51.1904 8.62345 51.1904H0.599955C0.407533 51.1904 0.310547 51.0824 0.310547 50.8665V49.3915C0.310547 49.3279 0.318293 49.2768 0.335026 49.2386C0.350519 49.2003 0.3688 49.1636 0.388012 49.1254L5.45948 40.3481L5.67266 40.0725H0.754885C0.554716 40.0725 0.455251 39.9618 0.455251 39.7397V37.95C0.455251 37.8417 0.480969 37.76 0.532716 37.7025C0.584462 37.6453 0.65542 37.6172 0.74435 37.6172H8.49672Z" fill="white"/>
<path fill-rule="evenodd" clip-rule="evenodd" d="M13.1164 46.9646C13.1164 47.2182 13.1567 47.4645 13.2367 47.7012C13.3166 47.9398 13.434 48.1515 13.589 48.335C13.7427 48.5185 13.9342 48.6663 14.1625 48.7773C14.3912 48.8883 14.6558 48.9446 14.9579 48.9446C15.2666 48.9446 15.5355 48.8868 15.7626 48.7721C15.991 48.6589 16.1825 48.5084 16.3374 48.3212C16.4911 48.1334 16.6045 47.9205 16.6795 47.6838C16.7529 47.4452 16.7904 47.2054 16.7904 46.9646V38.0075C16.7904 37.8992 16.8242 37.8074 16.8915 37.731C16.9584 37.6545 17.0476 37.6172 17.1561 37.6172H19.1423C19.2585 37.6172 19.3462 37.657 19.4084 37.7359C19.4689 37.8151 19.5002 37.9056 19.5002 38.0075V46.7071C19.5002 47.4122 19.3979 48.0557 19.1953 48.64C18.9938 49.2236 18.6982 49.7243 18.3094 50.144C17.9193 50.5621 17.4442 50.8873 16.8809 51.1191C16.3191 51.3513 15.6774 51.4672 14.9579 51.4672C14.257 51.4672 13.6265 51.3485 13.0675 51.1139C12.5082 50.8796 12.0332 50.5557 11.6403 50.144C11.2492 49.731 10.9468 49.2389 10.7339 48.6675C10.522 48.0964 10.416 47.4758 10.416 46.8028V37.9974C10.416 37.8903 10.4433 37.7998 10.4991 37.7258C10.5533 37.6533 10.6255 37.6172 10.7156 37.6172H12.7883C12.9163 37.6172 13.0043 37.6533 13.048 37.7258C13.0932 37.7998 13.1164 37.8903 13.1164 37.9974V46.9646Z" fill="white"/>
<path fill-rule="evenodd" clip-rule="evenodd" d="M21.6204 40.1633C21.8196 39.595 22.1124 39.1013 22.4988 38.6832C22.8833 38.2638 23.3574 37.935 23.9204 37.6927C24.4822 37.452 25.1264 37.3318 25.8536 37.3318C26.6054 37.3318 27.2589 37.4569 27.8113 37.7068C28.3644 37.9579 28.8215 38.2727 29.1856 38.6501C29.5484 39.0276 29.8171 39.4381 29.9903 39.8828C30.1644 40.3264 30.2512 40.7424 30.2512 41.1296V41.9011C30.2512 42.0081 30.2316 42.0971 30.1929 42.1675C30.1542 42.2363 30.0869 42.2721 29.9903 42.2721H27.8981C27.8011 42.2721 27.7261 42.254 27.6707 42.2198C27.6167 42.184 27.5895 42.1192 27.5895 42.0246V41.7481C27.5895 41.4563 27.5455 41.1948 27.459 40.9626C27.3723 40.7304 27.2499 40.5344 27.0922 40.3726C26.9344 40.2104 26.746 40.0869 26.5239 40.0015C26.3017 39.9159 26.0591 39.8728 25.7957 39.8728C25.5193 39.8728 25.2699 39.9263 25.048 40.0346C24.8271 40.1432 24.6384 40.2881 24.4847 40.4732C24.3298 40.6567 24.2123 40.8721 24.1321 41.1195C24.0524 41.367 24.0122 41.6282 24.0122 41.9011V46.8692C24.0122 47.1546 24.0509 47.4247 24.1271 47.6786C24.2046 47.9321 24.3208 48.1527 24.4745 48.3402C24.6294 48.5277 24.8178 48.6742 25.044 48.7825C25.2686 48.8908 25.5323 48.9446 25.8344 48.9446C26.0718 48.9446 26.3017 48.9049 26.5239 48.8259C26.746 48.7458 26.9397 48.6283 27.1076 48.4726C27.2743 48.3173 27.4073 48.1261 27.5067 47.8979C27.6074 47.6682 27.6564 47.4057 27.6564 47.1075V46.5453H26.404C26.1973 46.5453 26.095 46.4278 26.095 46.1935V44.5846C26.095 44.3435 26.1973 44.2227 26.404 44.2227H29.9707C30.2146 44.2227 30.3376 44.35 30.3376 44.6038V47.0503C30.3376 47.7615 30.2239 48.391 29.9952 48.9391C29.7669 49.4888 29.4505 49.9516 29.0449 50.3287C28.6405 50.7065 28.1599 50.9919 27.6037 51.1855C27.0485 51.3794 26.4414 51.4761 25.7864 51.4761C25.1047 51.4761 24.4887 51.3577 23.9396 51.1191C23.3896 50.8809 22.9208 50.5533 22.5323 50.1339C22.1425 49.7157 21.8441 49.2175 21.6346 48.64C21.4254 48.0621 21.3223 47.4314 21.3223 46.7456V41.9953C21.3223 41.3425 21.4214 40.7304 21.6204 40.1633Z" fill="white"/>
<path fill-rule="evenodd" clip-rule="evenodd" d="M37.5303 37.9973C37.5303 37.7438 37.6517 37.6174 37.8971 37.6174H39.6804C39.7904 37.6174 39.8883 37.6443 39.9751 37.6979C40.0615 37.7514 40.13 37.8392 40.1817 37.9591L43.866 45.3455L44.2806 46.5556L44.1451 45.3455L44.029 37.9973C44.029 37.8903 44.0584 37.7997 44.1166 37.7257C44.1733 37.6532 44.2675 37.6174 44.3955 37.6174H46.2565C46.334 37.6174 46.4115 37.6404 46.4874 37.6887C46.5651 37.7361 46.6039 37.8331 46.6039 37.9784V50.8196C46.6039 51.0671 46.4719 51.1906 46.2088 51.1906H44.4538C44.3503 51.1906 44.2548 51.1653 44.1644 51.1142C44.0739 51.0634 44.0029 50.9781 43.9527 50.8578L40.2874 43.6042L39.8731 42.4339L39.9983 43.6042L40.1055 50.8196C40.1055 51.0671 39.9853 51.1906 39.7476 51.1906H37.8971C37.6517 51.1906 37.5303 51.0671 37.5303 50.8196V37.9973Z" fill="white"/>
<path fill-rule="evenodd" clip-rule="evenodd" d="M32.3232 37.9973C32.3232 37.7438 32.4447 37.6174 32.6901 37.6174H34.6658C34.9034 37.6174 35.0237 37.7438 35.0237 37.9973V50.8196C35.0237 51.0671 34.9034 51.1906 34.6658 51.1906H32.6901C32.4447 51.1906 32.3232 51.0671 32.3232 50.8196V37.9973Z" fill="white"/>
<path fill-rule="evenodd" clip-rule="evenodd" d="M49.1016 37.9973C49.1016 37.7438 49.2233 37.6174 49.4684 37.6174H55.9668C56.1787 37.6174 56.286 37.7373 56.286 37.9784V39.7962C56.286 40.0385 56.1787 40.1581 55.9668 40.1581H51.802V43.2613H54.9737C55.0769 43.2613 55.1596 43.2919 55.2244 43.3518C55.2888 43.413 55.3211 43.506 55.3211 43.6323V45.4413C55.3211 45.6759 55.2049 45.793 54.9737 45.793H51.802V50.8196C51.802 51.0671 51.6768 51.1906 51.4249 51.1906H49.4684C49.2233 51.1906 49.1016 51.0671 49.1016 50.8196V37.9973Z" fill="white"/>
<path fill-rule="evenodd" clip-rule="evenodd" d="M59.863 46.8881C59.863 47.1738 59.903 47.4414 59.9833 47.6926C60.0632 47.9434 60.1807 48.1615 60.3356 48.3487C60.4893 48.5365 60.6805 48.683 60.9091 48.7876C61.1375 48.8922 61.4024 48.9445 61.7045 48.9445C62.0067 48.9445 62.2725 48.8922 62.5052 48.7876C62.7361 48.683 62.9288 48.5365 63.0837 48.3487C63.2374 48.1615 63.3536 47.9434 63.4298 47.6926C63.5073 47.4414 63.546 47.1738 63.546 46.8881V41.9288C63.546 41.6495 63.5061 41.3846 63.4258 41.1335C63.3446 40.8833 63.2281 40.664 63.0732 40.4768C62.9195 40.2908 62.7258 40.14 62.4947 40.0293C62.2635 39.9186 62.0002 39.8635 61.7045 39.8635C61.4024 39.8635 61.1375 39.9186 60.9091 40.0293C60.6805 40.14 60.4893 40.292 60.3356 40.482C60.1807 40.6719 60.0632 40.8913 59.9833 41.1384C59.903 41.3859 59.863 41.6471 59.863 41.9187V46.8881ZM57.1729 42.138C57.1729 41.5042 57.2658 40.8962 57.452 40.315C57.6376 39.7347 57.9196 39.2236 58.2952 38.7825C58.6723 38.3417 59.1423 37.9909 59.7081 37.7309C60.2736 37.4709 60.9361 37.3406 61.694 37.3406C62.447 37.3406 63.107 37.4709 63.6765 37.7309C64.2448 37.9909 64.7185 38.3402 65.0984 38.7773C65.478 39.2159 65.7634 39.7234 65.9571 40.3009C66.1495 40.8784 66.2465 41.4877 66.2465 42.1289V46.688C66.2465 47.3289 66.1507 47.9385 65.9611 48.516C65.7724 49.0935 65.4858 49.6006 65.1034 50.0396C64.7213 50.4764 64.2448 50.826 63.6765 51.086C63.107 51.346 62.447 51.476 61.694 51.476C60.9491 51.476 60.2956 51.346 59.7326 51.086C59.1696 50.826 58.6992 50.4764 58.32 50.0396C57.9401 49.6006 57.6547 49.0935 57.4623 48.516C57.2686 47.9385 57.1729 47.3289 57.1729 46.688V42.138Z" fill="white"/>
<path fill-rule="evenodd" clip-rule="evenodd" d="M73.7021 38.0482C73.7021 37.7931 73.8242 37.6653 74.07 37.6653H75.8671C75.9765 37.6653 76.0766 37.6925 76.164 37.7463C76.2517 37.8002 76.3205 37.8886 76.3716 38.0106L80.0828 45.4491L80.4995 46.668L80.3632 45.4491L80.2467 38.0482C80.2467 37.9403 80.2758 37.8488 80.3341 37.7748C80.3923 37.7014 80.4868 37.6653 80.616 37.6653H82.4901C82.5682 37.6653 82.6466 37.6888 82.7231 37.7372C82.8015 37.7843 82.8396 37.8831 82.8396 38.0287V50.9623C82.8396 51.2122 82.707 51.3361 82.4427 51.3361H80.6746C80.5708 51.3361 80.4741 51.311 80.3833 51.2587C80.2922 51.2085 80.221 51.1223 80.1702 51.0002L76.4791 43.6945L76.062 42.5154L76.1875 43.6945L76.2951 50.9623C76.2951 51.2122 76.1748 51.3361 75.9344 51.3361H74.07C73.8242 51.3361 73.7021 51.2122 73.7021 50.9623V38.0482Z" fill="white"/>
<path fill-rule="evenodd" clip-rule="evenodd" d="M88.0748 40.2255V44.2034H89.9015C90.1072 44.2034 90.2947 44.1658 90.4642 44.0884C90.6315 44.011 90.7756 43.9086 90.8958 43.7774C91.0157 43.6464 91.1087 43.495 91.1725 43.3265C91.2379 43.1573 91.2707 42.9756 91.2707 42.7851V41.5952C91.2707 41.4043 91.236 41.2251 91.1688 41.0596C91.0997 40.8923 91.0067 40.7467 90.8865 40.6228C90.7666 40.4986 90.6225 40.3998 90.4552 40.3298C90.2857 40.2594 90.1016 40.2255 89.9015 40.2255H88.0748ZM85.3564 38.0485C85.3564 37.7934 85.4782 37.6655 85.7239 37.6655H90.0564C90.6061 37.6655 91.1214 37.7643 91.6004 37.9622C92.0792 38.1598 92.4944 38.4333 92.8476 38.7817C93.2008 39.1307 93.4794 39.5369 93.6836 40.0043C93.8875 40.4717 93.9894 40.973 93.9894 41.5089V42.7077C93.9894 43.053 93.9476 43.38 93.8639 43.6911C93.7781 44.0004 93.6597 44.2897 93.5085 44.5577C93.3558 44.8272 93.1792 45.0737 92.975 45.3019C92.7711 45.5282 92.5489 45.7277 92.3088 45.9005L92.5526 46.2835L93.9984 50.9534C94.0316 51.0415 94.0279 51.128 93.9894 51.2125C93.9513 51.295 93.8819 51.3363 93.7855 51.3363H91.522C91.4126 51.3363 91.3327 51.3149 91.2853 51.2697C91.236 51.225 91.1961 51.1387 91.1632 51.0112L90.0068 46.6967H88.0748V50.9625C88.0748 51.2125 87.9493 51.3363 87.6962 51.3363H85.7239C85.4782 51.3363 85.3564 51.2125 85.3564 50.9625V38.0485Z" fill="white"/>
<path fill-rule="evenodd" clip-rule="evenodd" d="M101.117 50.9821C101.053 51.218 100.911 51.3363 100.691 51.3363H99.01C98.7845 51.3363 98.6388 51.218 98.5731 50.9821L95.0476 38.0485C94.9695 37.7934 95.0438 37.6655 95.2719 37.6655H97.3294C97.4332 37.6655 97.5261 37.6909 97.6064 37.7411C97.6882 37.7934 97.7446 37.8833 97.7774 38.0109L99.8457 46.3697L99.9514 47.3008L100.126 46.3804L102.137 38.0109C102.164 37.8833 102.217 37.7934 102.297 37.7411C102.379 37.6909 102.468 37.6655 102.565 37.6655H104.642C104.863 37.6655 104.934 37.7934 104.857 38.0485L103.623 42.411L104.566 46.3893L104.75 47.4051L104.876 46.3804L106.935 38.0109C106.968 37.8833 107.023 37.7934 107.101 37.7411C107.177 37.6909 107.268 37.6655 107.372 37.6655H109.441C109.661 37.6655 109.732 37.7934 109.654 38.0485L106.139 50.9821C106.061 51.218 105.915 51.3363 105.702 51.3363H103.963C103.738 51.3363 103.592 51.218 103.526 50.9821L102.381 47.4051L102.264 46.7148L102.186 47.4051L101.117 50.9821Z" fill="white"/>
<path fill-rule="evenodd" clip-rule="evenodd" d="M68.502 46.9058C68.502 46.8232 68.6234 46.7822 68.8688 46.7822H70.8448C71.0822 46.7822 71.2024 46.8232 71.2024 46.9058V51.0786C71.2024 51.1588 71.0822 51.1992 70.8448 51.1992H68.8688C68.6234 51.1992 68.502 51.1588 68.502 51.0786V46.9058Z" fill="#DD4314"/>
<path fill-rule="evenodd" clip-rule="evenodd" d="M30.9264 35.0999V30.6802H0.166992V34.9625H0.318823V35.0999H30.9264Z" fill="white"/>
<mask id="mask0_502_10249" style="mask-type:alpha" maskUnits="userSpaceOnUse" x="0" y="0" width="110" height="36">
<path fill-rule="evenodd" clip-rule="evenodd" d="M0 0H109.813V35.0997H0V0Z" fill="white"/>
</mask>
<g mask="url(#mask0_502_10249)">
<path fill-rule="evenodd" clip-rule="evenodd" d="M51.4781 32.8707C51.4995 32.8395 51.5221 32.8102 51.5429 32.7787C52.2785 31.661 52.6516 30.1888 52.6516 28.403C52.6516 18.7631 41.6553 0 21.4878 0L0 0.104918L0.0182817 4.38727L21.4968 4.28235C30.144 4.28235 36.7434 8.32153 41.2323 13.2933H29.9668C28.7689 13.2933 27.7978 14.252 27.7978 15.4345C27.7978 16.6171 28.7689 17.5757 29.9668 17.5757H44.4772C47.0248 21.6124 48.3136 25.692 48.3136 28.403C48.3136 29.6865 48.0282 30.2588 47.9055 30.4451C47.798 30.6084 47.7199 30.68 47.4246 30.68H36.3781V35.0997H109.813V32.8707H51.4781Z" fill="white"/>
</g>
<path fill-rule="evenodd" clip-rule="evenodd" d="M32.3018 30.7215C32.3018 30.6386 32.4232 30.5979 32.6686 30.5979H34.6446C34.882 30.5979 35.0022 30.6386 35.0022 30.7215V34.8943C35.0022 34.9745 34.882 35.0148 34.6446 35.0148H32.6686C32.4232 35.0148 32.3018 34.9745 32.3018 34.8943V30.7215Z" fill="#DD4314"/>
</svg>
