<svg width="101" height="48" viewBox="0 0 101 48" fill="none" xmlns="http://www.w3.org/2000/svg">
<path fill-rule="evenodd" clip-rule="evenodd" d="M8.34128 34.561C8.52259 34.561 8.61297 34.6616 8.61297 34.8625V36.1467C8.61297 36.1985 8.60679 36.239 8.59528 36.2678C8.5835 36.2969 8.57171 36.3257 8.5602 36.3545L3.95722 44.1997L3.74784 44.4756H8.45607C8.53662 44.4756 8.60118 44.5025 8.64805 44.5529C8.69464 44.605 8.71822 44.6801 8.71822 44.7785V46.5622C8.71822 46.6606 8.69464 46.7334 8.64805 46.7828C8.60118 46.8315 8.53662 46.8556 8.45607 46.8556H1.18841C1.01412 46.8556 0.92627 46.7578 0.92627 46.5622V45.2262C0.92627 45.1686 0.933286 45.1223 0.948442 45.0877C0.962476 45.053 0.979035 45.0198 0.996437 44.9851L5.59016 37.0347L5.78326 36.7851H1.32875C1.14744 36.7851 1.05734 36.6848 1.05734 36.4836V34.8625C1.05734 34.7644 1.08064 34.6904 1.12751 34.6383C1.17438 34.5865 1.23865 34.561 1.31921 34.561H8.34128Z" fill="#4D6C8C"/>
<path fill-rule="evenodd" clip-rule="evenodd" d="M12.5256 43.0278C12.5256 43.2575 12.5621 43.4805 12.6345 43.695C12.7069 43.9111 12.8133 44.1028 12.9536 44.2691C13.0929 44.4353 13.2663 44.5691 13.4732 44.6697C13.6803 44.7703 13.92 44.8213 14.1936 44.8213C14.4732 44.8213 14.7168 44.7689 14.9225 44.665C15.1294 44.5625 15.3029 44.4262 15.4432 44.2566C15.5824 44.0865 15.6851 43.8937 15.753 43.6792C15.8196 43.4631 15.8535 43.2459 15.8535 43.0278V34.9145C15.8535 34.8164 15.8841 34.7332 15.945 34.664C16.0056 34.5947 16.0865 34.5609 16.1847 34.5609H17.9838C18.0891 34.5609 18.1685 34.5969 18.2249 34.6684C18.2796 34.7402 18.308 34.8222 18.308 34.9145V42.7945C18.308 43.4332 18.2154 44.0161 18.0318 44.5453C17.8494 45.074 17.5816 45.5275 17.2294 45.9077C16.876 46.2864 16.4457 46.5809 15.9355 46.7909C15.4266 47.0012 14.8454 47.1062 14.1936 47.1062C13.5588 47.1062 12.9876 46.9987 12.4813 46.7862C11.9747 46.574 11.5444 46.2806 11.1885 45.9077C10.8343 45.5336 10.5604 45.0878 10.3676 44.5702C10.1756 44.053 10.0796 43.4908 10.0796 42.8812V34.9053C10.0796 34.8083 10.1043 34.7263 10.1548 34.6593C10.2039 34.5936 10.2693 34.5609 10.351 34.5609H12.2284C12.3443 34.5609 12.424 34.5936 12.4636 34.6593C12.5046 34.7263 12.5256 34.8083 12.5256 34.9053V43.0278Z" fill="#4D6C8C"/>
<path fill-rule="evenodd" clip-rule="evenodd" d="M20.2285 36.8672C20.409 36.3524 20.6742 35.9052 21.0242 35.5265C21.3725 35.1466 21.8019 34.8487 22.3119 34.6293C22.8208 34.4113 23.4043 34.3024 24.063 34.3024C24.7439 34.3024 25.3358 34.4157 25.8363 34.6421C26.3373 34.8695 26.7513 35.1546 27.081 35.4965C27.4097 35.8384 27.653 36.2103 27.8099 36.6131C27.9677 37.0149 28.0463 37.3917 28.0463 37.7424V38.4412C28.0463 38.5382 28.0286 38.6188 27.9935 38.6825C27.9584 38.7449 27.8975 38.7773 27.8099 38.7773H25.9149C25.827 38.7773 25.7591 38.7609 25.7089 38.7299C25.66 38.6975 25.6353 38.6388 25.6353 38.5531V38.3027C25.6353 38.0383 25.5955 37.8015 25.5172 37.5912C25.4386 37.3809 25.3277 37.2033 25.1848 37.0567C25.042 36.9099 24.8713 36.7979 24.6701 36.7206C24.4689 36.643 24.2491 36.604 24.0105 36.604C23.7602 36.604 23.5342 36.6525 23.3333 36.7505C23.1331 36.8489 22.9622 36.9802 22.823 37.1479C22.6827 37.3141 22.5763 37.5091 22.5036 37.7333C22.4315 37.9574 22.395 38.1941 22.395 38.4412V42.9413C22.395 43.1998 22.4301 43.4445 22.4991 43.6745C22.5693 43.9041 22.6745 44.1039 22.8137 44.2737C22.9541 44.4436 23.1247 44.5763 23.3296 44.6744C23.5331 44.7725 23.772 44.8212 24.0456 44.8212C24.2606 44.8212 24.4689 44.7852 24.6701 44.7137C24.8713 44.6411 25.0468 44.5347 25.1989 44.3937C25.3499 44.253 25.4703 44.0798 25.5604 43.8731C25.6516 43.665 25.6959 43.4273 25.6959 43.1572V42.6479H24.5615C24.3743 42.6479 24.2816 42.5415 24.2816 42.3293V40.8719C24.2816 40.6536 24.3743 40.5441 24.5615 40.5441H27.7923C28.0131 40.5441 28.1246 40.6594 28.1246 40.8894V43.1054C28.1246 43.7495 28.0216 44.3197 27.8144 44.8162C27.6076 45.3141 27.321 45.7333 26.9536 46.075C26.5873 46.4171 26.152 46.6756 25.6482 46.851C25.1453 47.0267 24.5954 47.1142 24.0021 47.1142C23.3846 47.1142 22.8267 47.007 22.3293 46.7909C21.8311 46.5751 21.4065 46.2783 21.0545 45.8985C20.7014 45.5197 20.4311 45.0684 20.2414 44.5453C20.052 44.0219 19.9585 43.4506 19.9585 42.8294V38.5265C19.9585 37.9353 20.0483 37.3809 20.2285 36.8672Z" fill="#4D6C8C"/>
<path fill-rule="evenodd" clip-rule="evenodd" d="M34.6401 34.9053C34.6401 34.6756 34.7502 34.5612 34.9724 34.5612H36.5877C36.6873 34.5612 36.776 34.5855 36.8546 34.634C36.9329 34.6825 36.995 34.762 37.0418 34.8706L40.379 41.5613L40.7545 42.6573L40.6319 41.5613L40.5266 34.9053C40.5266 34.8083 40.5533 34.7263 40.606 34.6592C40.6574 34.5936 40.7427 34.5612 40.8587 34.5612H42.5444C42.6145 34.5612 42.6847 34.5819 42.7535 34.6257C42.8239 34.6687 42.859 34.7565 42.859 34.8881V46.5196C42.859 46.7438 42.7394 46.8557 42.5011 46.8557H40.9114C40.8177 46.8557 40.7312 46.8327 40.6493 46.7865C40.5673 46.7405 40.503 46.6632 40.4576 46.5543L37.1375 39.9839L36.7623 38.9239L36.8757 39.9839L36.9728 46.5196C36.9728 46.7438 36.8639 46.8557 36.6486 46.8557H34.9724C34.7502 46.8557 34.6401 46.7438 34.6401 46.5196V34.9053Z" fill="#4D6C8C"/>
<path fill-rule="evenodd" clip-rule="evenodd" d="M29.9238 34.9053C29.9238 34.6756 30.0339 34.5612 30.2561 34.5612H32.0457C32.261 34.5612 32.3699 34.6756 32.3699 34.9053V46.5196C32.3699 46.7438 32.261 46.8557 32.0457 46.8557H30.2561C30.0339 46.8557 29.9238 46.7438 29.9238 46.5196V34.9053Z" fill="#4D6C8C"/>
<path fill-rule="evenodd" clip-rule="evenodd" d="M45.1211 34.9053C45.1211 34.6756 45.2314 34.5612 45.4534 34.5612H51.3396C51.5316 34.5612 51.6287 34.6698 51.6287 34.8881V36.5347C51.6287 36.7541 51.5316 36.8625 51.3396 36.8625H47.5671V39.6733H50.4401C50.5335 39.6733 50.6085 39.701 50.6671 39.7553C50.7255 39.8107 50.7547 39.895 50.7547 40.0094V41.648C50.7547 41.8605 50.6494 41.9666 50.4401 41.9666H47.5671V46.5196C47.5671 46.7438 47.4537 46.8557 47.2256 46.8557H45.4534C45.2314 46.8557 45.1211 46.7438 45.1211 46.5196V34.9053Z" fill="#4D6C8C"/>
<path fill-rule="evenodd" clip-rule="evenodd" d="M54.8689 42.9585C54.8689 43.2173 54.9051 43.4597 54.9778 43.6872C55.0502 43.9144 55.1566 44.112 55.2969 44.2815C55.4361 44.4516 55.6093 44.5844 55.8164 44.6791C56.0233 44.7739 56.2632 44.8212 56.5369 44.8212C56.8106 44.8212 57.0514 44.7739 57.2622 44.6791C57.4713 44.5844 57.6458 44.4516 57.7862 44.2815C57.9254 44.112 58.0306 43.9144 58.0997 43.6872C58.1698 43.4597 58.2049 43.2173 58.2049 42.9585V38.4664C58.2049 38.2135 58.1687 37.9735 58.096 37.7461C58.0225 37.5194 57.917 37.3208 57.7766 37.1512C57.6374 36.9827 57.462 36.8461 57.2526 36.7458C57.0432 36.6455 56.8047 36.5957 56.5369 36.5957C56.2632 36.5957 56.0233 36.6455 55.8164 36.7458C55.6093 36.8461 55.4361 36.9838 55.2969 37.1559C55.1566 37.328 55.0502 37.5266 54.9778 37.7505C54.9051 37.9746 54.8689 38.2113 54.8689 38.4573V42.9585ZM52.4321 38.6559C52.4321 38.0819 52.5163 37.5311 52.685 37.0046C52.8531 36.479 53.1085 36.0161 53.4487 35.6165C53.7903 35.2173 54.2161 34.8995 54.7286 34.664C55.2408 34.4285 55.8409 34.3104 56.5274 34.3104C57.2094 34.3104 57.8072 34.4285 58.3231 34.664C58.8379 34.8995 59.267 35.2159 59.6111 35.6118C59.9549 36.0091 60.2134 36.4688 60.3888 36.9919C60.5631 37.515 60.651 38.0669 60.651 38.6476V42.7773C60.651 43.3578 60.5643 43.91 60.3925 44.4331C60.2216 44.9562 59.9619 45.4156 59.6156 45.8132C59.2695 46.2088 58.8379 46.5255 58.3231 46.761C57.8072 46.9965 57.2094 47.1143 56.5274 47.1143C55.8526 47.1143 55.2607 46.9965 54.7507 46.761C54.2408 46.5255 53.8147 46.2088 53.4712 45.8132C53.1271 45.4156 52.8686 44.9562 52.6943 44.4331C52.5189 43.91 52.4321 43.3578 52.4321 42.7773V38.6559Z" fill="#4D6C8C"/>
<path fill-rule="evenodd" clip-rule="evenodd" d="M67.4048 34.9515C67.4048 34.7204 67.5154 34.6046 67.7379 34.6046H69.3658C69.4649 34.6046 69.5556 34.6293 69.6347 34.678C69.7141 34.7268 69.7764 34.8069 69.8228 34.9174L73.1843 41.6551L73.5619 42.7593L73.4384 41.6551L73.3328 34.9515C73.3328 34.8537 73.3592 34.7709 73.412 34.7038C73.4647 34.6373 73.5503 34.6046 73.6674 34.6046H75.3649C75.4356 34.6046 75.5066 34.6259 75.5759 34.6697C75.647 34.7124 75.6815 34.8019 75.6815 34.9338V46.649C75.6815 46.8754 75.5613 46.9876 75.3219 46.9876H73.7204C73.6264 46.9876 73.5388 46.9649 73.4566 46.9175C73.3741 46.872 73.3095 46.7939 73.2635 46.6834L69.9202 40.0659L69.5424 38.9978L69.656 40.0659L69.7534 46.649C69.7534 46.8754 69.6445 46.9876 69.4267 46.9876H67.7379C67.5154 46.9876 67.4048 46.8754 67.4048 46.649V34.9515Z" fill="#4D6C8C"/>
<path fill-rule="evenodd" clip-rule="evenodd" d="M80.4232 36.9234V40.5266H82.0778C82.2641 40.5266 82.4339 40.4926 82.5875 40.4225C82.739 40.3524 82.8695 40.2596 82.9784 40.1407C83.087 40.0221 83.1712 39.885 83.2291 39.7323C83.2883 39.5791 83.318 39.4145 83.318 39.2419V38.1641C83.318 37.9912 83.2866 37.8288 83.2257 37.6789C83.1631 37.5274 83.0789 37.3955 82.97 37.2833C82.8614 37.1708 82.7309 37.0813 82.5793 37.0179C82.4258 36.9541 82.2591 36.9234 82.0778 36.9234H80.4232ZM77.9609 34.9515C77.9609 34.7204 78.0712 34.6046 78.2938 34.6046H82.2181C82.716 34.6046 83.1828 34.6941 83.6167 34.8734C84.0503 35.0524 84.4264 35.3001 84.7464 35.6156C85.0664 35.9318 85.3187 36.2997 85.5037 36.7231C85.6883 37.1464 85.7807 37.6005 85.7807 38.086V39.1718C85.7807 39.4846 85.7428 39.7808 85.667 40.0626C85.5893 40.3427 85.482 40.6048 85.3451 40.8475C85.2067 41.0916 85.0467 41.3149 84.8618 41.5216C84.6771 41.7266 84.4758 41.9073 84.2583 42.0638L84.4792 42.4107L85.7888 46.6407C85.8188 46.7205 85.8155 46.7989 85.7807 46.8754C85.7462 46.9502 85.6833 46.9876 85.596 46.9876H83.5457C83.4466 46.9876 83.3742 46.9682 83.3313 46.9272C83.2866 46.8867 83.2504 46.8086 83.2207 46.6931L82.1732 42.785H80.4233V46.649C80.4233 46.8754 80.3096 46.9876 80.0803 46.9876H78.2938C78.0712 46.9876 77.9609 46.8754 77.9609 46.649V34.9515Z" fill="#4D6C8C"/>
<path fill-rule="evenodd" clip-rule="evenodd" d="M92.2368 46.6667C92.179 46.8804 92.0505 46.9876 91.8509 46.9876H90.3283C90.1239 46.9876 89.992 46.8804 89.9325 46.6667L86.7391 34.9515C86.6683 34.7204 86.7357 34.6046 86.9423 34.6046H88.8059C88.8999 34.6046 88.9841 34.6276 89.0568 34.673C89.1309 34.7204 89.182 34.8019 89.2118 34.9174L91.0852 42.4888L91.1809 43.3322L91.3395 42.4985L93.1605 34.9174C93.1852 34.8019 93.2332 34.7204 93.3056 34.673C93.3797 34.6276 93.4605 34.6046 93.5481 34.6046H95.43C95.6298 34.6046 95.6938 34.7204 95.6245 34.9515L94.5063 38.903L95.3609 42.5066L95.5274 43.4267L95.6413 42.4985L97.5067 34.9174C97.5364 34.8019 97.5861 34.7204 97.6568 34.673C97.7261 34.6276 97.8087 34.6046 97.9027 34.6046H99.7762C99.9757 34.6046 100.04 34.7204 99.9693 34.9515L96.7859 46.6667C96.7149 46.8804 96.583 46.9876 96.3902 46.9876H94.815C94.6104 46.9876 94.4782 46.8804 94.4187 46.6667L93.3814 43.4267L93.2759 42.8014L93.2048 43.4267L92.2368 46.6667Z" fill="#4D6C8C"/>
<path fill-rule="evenodd" clip-rule="evenodd" d="M62.6938 42.9745C62.6938 42.8997 62.8039 42.8625 63.0262 42.8625H64.816C65.031 42.8625 65.1399 42.8997 65.1399 42.9745V46.7542C65.1399 46.8268 65.031 46.8634 64.816 46.8634H63.0262C62.8039 46.8634 62.6938 46.8268 62.6938 46.7542V42.9745Z" fill="#DD4314"/>
<path fill-rule="evenodd" clip-rule="evenodd" d="M28.6587 32.2807V28.2773H0.796875V32.1563H0.934403V32.2807H28.6587Z" fill="#4D6C8C"/>
<mask id="mask0_502_9572" style="mask-type:alpha" maskUnits="userSpaceOnUse" x="0" y="0" width="101" height="33">
<path fill-rule="evenodd" clip-rule="evenodd" d="M0.64502 0.487427H100.113V32.2806H0.64502V0.487427Z" fill="white"/>
</mask>
<g mask="url(#mask0_502_9572)">
<path fill-rule="evenodd" clip-rule="evenodd" d="M47.2738 30.2616C47.2931 30.2334 47.3136 30.2068 47.3324 30.1782C47.9987 29.1658 48.3367 27.8323 48.3367 26.2148C48.3367 17.483 38.3763 0.487427 20.1086 0.487427L0.64502 0.582461L0.661579 4.4614L20.1167 4.36637C27.9494 4.36637 33.9271 8.02504 37.9932 12.5285H27.7889C26.7038 12.5285 25.8242 13.3968 25.8242 14.468C25.8242 15.5391 26.7038 16.4074 27.7889 16.4074H40.9323C43.24 20.0639 44.4073 23.7591 44.4073 26.2148C44.4073 27.3774 44.1488 27.8958 44.0377 28.0645C43.9403 28.2124 43.8695 28.2773 43.6021 28.2773H33.5962V32.2806H100.114V30.2616H47.2738Z" fill="#4D6C8C"/>
</g>
<path fill-rule="evenodd" clip-rule="evenodd" d="M29.9043 28.3148C29.9043 28.2397 30.0143 28.2029 30.2366 28.2029H32.0264C32.2414 28.2029 32.3503 28.2397 32.3503 28.3148V32.0946C32.3503 32.1672 32.2414 32.2037 32.0264 32.2037H30.2366C30.0143 32.2037 29.9043 32.1672 29.9043 32.0946V28.3148Z" fill="#DD4314"/>
</svg>
