<svg width="2822" height="19" viewBox="0 0 2822 19" fill="none" xmlns="http://www.w3.org/2000/svg">
<path d="M0 0H20L39 19H19L0 0Z" fill="#E63312"/>
<path d="M1411 0H1431L1450 19H1430L1411 0Z" fill="#E63312"/>
<path d="M160 0H180L199 19H179L160 0Z" fill="#E63312"/>
<path d="M1571 0H1591L1610 19H1590L1571 0Z" fill="#E63312"/>
<path d="M80 0H100L119 19H99L80 0Z" fill="#E63312"/>
<path d="M1491 0H1511L1530 19H1510L1491 0Z" fill="#E63312"/>
<path d="M240 0H260L279 19H259L240 0Z" fill="#E63312"/>
<path d="M1651 0H1671L1690 19H1670L1651 0Z" fill="#E63312"/>
<path d="M40 0H60L79 19H59L40 0Z" fill="#E63312"/>
<path d="M1451 0H1471L1490 19H1470L1451 0Z" fill="#E63312"/>
<path d="M200 0H220L239 19H219L200 0Z" fill="#E63312"/>
<path d="M1611 0H1631L1650 19H1630L1611 0Z" fill="#E63312"/>
<path d="M120 0H140L159 19H139L120 0Z" fill="#E63312"/>
<path d="M1531 0H1551L1570 19H1550L1531 0Z" fill="#E63312"/>
<path d="M280 0H300L319 19H299L280 0Z" fill="#E63312"/>
<path d="M1691 0H1711L1730 19H1710L1691 0Z" fill="#E63312"/>
<path d="M319 0H339L358 19H338L319 0Z" fill="#E63312"/>
<path d="M1730 0H1750L1769 19H1749L1730 0Z" fill="#E63312"/>
<path d="M358 0H378L397 19H377L358 0Z" fill="#E63312"/>
<path d="M1769 0H1789L1808 19H1788L1769 0Z" fill="#E63312"/>
<path d="M397 0H417L436 19H416L397 0Z" fill="#E63312"/>
<path d="M1808 0H1828L1847 19H1827L1808 0Z" fill="#E63312"/>
<path d="M436 0H456L475 19H455L436 0Z" fill="#E63312"/>
<path d="M1847 0H1867L1886 19H1866L1847 0Z" fill="#E63312"/>
<path d="M475 0H495L514 19H494L475 0Z" fill="#E63312"/>
<path d="M1886 0H1906L1925 19H1905L1886 0Z" fill="#E63312"/>
<path d="M514 0H534L553 19H533L514 0Z" fill="#E63312"/>
<path d="M1925 0H1945L1964 19H1944L1925 0Z" fill="#E63312"/>
<path d="M553 0H573L592 19H572L553 0Z" fill="#E63312"/>
<path d="M1964 0H1984L2003 19H1983L1964 0Z" fill="#E63312"/>
<path d="M592 0H612L631 19H611L592 0Z" fill="#E63312"/>
<path d="M2003 0H2023L2042 19H2022L2003 0Z" fill="#E63312"/>
<path d="M631 0H651L670 19H650L631 0Z" fill="#E63312"/>
<path d="M2042 0H2062L2081 19H2061L2042 0Z" fill="#E63312"/>
<path d="M670 0H690L709 19H689L670 0Z" fill="#E63312"/>
<path d="M2081 0H2101L2120 19H2100L2081 0Z" fill="#E63312"/>
<path d="M709 0H729L748 19H728L709 0Z" fill="#E63312"/>
<path d="M2120 0H2140L2159 19H2139L2120 0Z" fill="#E63312"/>
<path d="M748 0H768L787 19H767L748 0Z" fill="#E63312"/>
<path d="M2159 0H2179L2198 19H2178L2159 0Z" fill="#E63312"/>
<path d="M787 0H807L826 19H806L787 0Z" fill="#E63312"/>
<path d="M2198 0H2218L2237 19H2217L2198 0Z" fill="#E63312"/>
<path d="M826 0H846L865 19H845L826 0Z" fill="#E63312"/>
<path d="M2237 0H2257L2276 19H2256L2237 0Z" fill="#E63312"/>
<path d="M865 0H885L904 19H884L865 0Z" fill="#E63312"/>
<path d="M2276 0H2296L2315 19H2295L2276 0Z" fill="#E63312"/>
<path d="M904 0H924L943 19H923L904 0Z" fill="#E63312"/>
<path d="M2315 0H2335L2354 19H2334L2315 0Z" fill="#E63312"/>
<path d="M943 0H963L982 19H962L943 0Z" fill="#E63312"/>
<path d="M2354 0H2374L2393 19H2373L2354 0Z" fill="#E63312"/>
<path d="M982 0H1002L1021 19H1001L982 0Z" fill="#E63312"/>
<path d="M2393 0H2413L2432 19H2412L2393 0Z" fill="#E63312"/>
<path d="M1021 0H1041L1060 19H1040L1021 0Z" fill="#E63312"/>
<path d="M2432 0H2452L2471 19H2451L2432 0Z" fill="#E63312"/>
<path d="M1060 0H1080L1099 19H1079L1060 0Z" fill="#E63312"/>
<path d="M2471 0H2491L2510 19H2490L2471 0Z" fill="#E63312"/>
<path d="M1099 0H1119L1138 19H1118L1099 0Z" fill="#E63312"/>
<path d="M2510 0H2530L2549 19H2529L2510 0Z" fill="#E63312"/>
<path d="M1138 0H1158L1177 19H1157L1138 0Z" fill="#E63312"/>
<path d="M2549 0H2569L2588 19H2568L2549 0Z" fill="#E63312"/>
<path d="M1177 0H1197L1216 19H1196L1177 0Z" fill="#E63312"/>
<path d="M2588 0H2608L2627 19H2607L2588 0Z" fill="#E63312"/>
<path d="M1216 0H1236L1255 19H1235L1216 0Z" fill="#E63312"/>
<path d="M2627 0H2647L2666 19H2646L2627 0Z" fill="#E63312"/>
<path d="M1255 0H1275L1294 19H1274L1255 0Z" fill="#E63312"/>
<path d="M2666 0H2686L2705 19H2685L2666 0Z" fill="#E63312"/>
<path d="M1294 0H1314L1333 19H1313L1294 0Z" fill="#E63312"/>
<path d="M2705 0H2725L2744 19H2724L2705 0Z" fill="#E63312"/>
<path d="M1333 0H1353L1372 19H1352L1333 0Z" fill="#E63312"/>
<path d="M2744 0H2764L2783 19H2763L2744 0Z" fill="#E63312"/>
<path d="M1372 0H1392L1411 19H1391L1372 0Z" fill="#E63312"/>
<path d="M2783 0H2803L2822 19H2802L2783 0Z" fill="#E63312"/>
</svg>
